<?xml version="1.0" encoding="UTF-8" ?>
<!DOCTYPE svg PUBLIC "-//W3C//DTD SVG 1.1//EN" "http://www.w3.org/Graphics/SVG/1.1/DTD/svg11.dtd">
<svg width="168pt" height="158pt" viewBox="0 0 168 158" version="1.1" xmlns="http://www.w3.org/2000/svg">
<g id="#0089d0ff">
<path fill="#0089d0" stroke="#0089d0" stroke-width="0.09375" opacity="1.00" d=" M 110.70 0.00 L 168.00 0.00 L 168.00 152.47 C 156.91 151.42 146.52 146.48 138.40 138.92 C 127.42 150.38 111.83 157.24 95.97 157.61 C 79.41 158.22 62.62 151.86 50.87 140.14 C 48.66 138.02 46.80 135.56 44.54 133.49 C 41.77 132.76 38.82 133.55 35.98 133.36 C 18.06 133.23 1.66 118.39 0.00 100.49 L 0.00 91.51 C 0.98 81.59 6.33 72.26 14.23 66.22 C 20.78 61.01 29.12 58.48 37.43 58.37 C 39.52 44.36 47.70 31.22 60.02 24.01 C 72.14 16.54 87.52 15.46 100.87 20.08 C 103.35 13.04 106.43 6.15 110.70 0.00 M 113.66 42.95 C 113.60 47.31 113.54 51.67 113.70 56.02 C 113.70 57.85 115.14 59.88 117.14 59.67 C 122.32 59.88 127.52 59.70 132.71 59.67 C 133.36 59.02 134.02 58.36 134.67 57.71 C 134.75 51.94 134.82 46.16 134.61 40.39 C 133.97 39.70 133.33 39.01 132.69 38.31 C 127.50 38.18 122.30 38.02 117.11 38.27 C 114.84 38.32 113.53 40.92 113.66 42.95 M 96.32 51.14 C 96.18 71.76 96.36 92.39 96.24 113.01 C 96.19 115.58 96.37 118.16 96.95 120.67 C 103.22 120.89 109.49 120.75 115.76 120.80 C 115.75 116.52 115.56 112.25 115.76 107.98 C 115.75 106.30 116.75 104.78 118.14 103.91 C 121.39 103.25 124.75 103.53 128.05 103.57 C 130.13 103.39 132.58 104.92 132.60 107.17 C 132.86 111.71 132.58 116.27 132.74 120.82 C 138.74 120.74 144.73 120.86 150.73 120.72 C 151.37 120.04 152.02 119.36 152.68 118.69 C 152.82 95.79 152.72 72.89 152.73 49.99 C 147.95 48.01 142.71 48.89 137.70 48.82 C 137.67 51.20 137.73 53.58 137.59 55.96 C 137.70 59.82 133.79 63.02 130.03 62.48 C 125.08 62.32 120.05 62.91 115.15 62.09 C 109.98 59.84 110.66 53.48 110.73 48.85 C 106.82 48.80 102.91 48.56 99.01 48.86 C 97.79 48.99 96.09 49.58 96.32 51.14 Z" />
<path fill="#0089d0" stroke="#0089d0" stroke-width="0.09375" opacity="1.00" d=" M 117.35 41.91 C 118.40 42.06 119.45 42.25 120.49 42.47 C 120.75 44.06 120.81 45.68 120.94 47.28 C 123.18 47.30 125.43 47.29 127.68 47.24 C 127.71 45.56 127.74 43.87 127.79 42.19 C 128.67 42.18 130.42 42.16 131.30 42.15 C 131.40 46.81 131.76 51.50 131.15 56.14 C 130.33 56.15 128.71 56.17 127.89 56.18 C 127.69 54.43 127.65 52.67 127.58 50.92 C 125.33 50.86 123.08 50.84 120.83 50.83 C 120.77 52.61 120.72 54.39 120.66 56.17 C 119.54 56.17 118.42 56.16 117.30 56.15 C 117.23 51.40 117.20 46.66 117.35 41.91 Z" />
<path fill="#0089d0" stroke="#0089d0" stroke-width="0.09375" opacity="1.00" d=" M 102.94 54.31 C 104.79 54.35 106.64 54.34 108.48 54.56 C 108.85 56.40 108.81 58.28 108.86 60.15 C 106.89 60.27 104.88 60.55 102.94 60.08 C 102.51 58.18 102.79 56.22 102.94 54.31 Z" />
<path fill="#0089d0" stroke="#0089d0" stroke-width="0.09375" opacity="1.00" d=" M 139.96 54.28 C 141.78 54.34 143.62 54.35 145.43 54.59 C 145.78 56.44 145.77 58.33 145.85 60.21 C 143.96 60.17 141.89 60.80 140.14 59.90 C 139.34 58.13 139.95 56.13 139.96 54.28 Z" />
<path fill="#0089d0" stroke="#0089d0" stroke-width="0.09375" opacity="1.00" d=" M 102.71 66.69 C 104.75 66.68 106.79 66.73 108.83 66.87 C 108.80 68.75 108.84 70.65 108.52 72.51 C 106.68 72.80 104.81 72.77 102.95 72.80 C 102.80 70.76 102.73 68.73 102.71 66.69 Z" />
<path fill="#0089d0" stroke="#0089d0" stroke-width="0.09375" opacity="1.00" d=" M 115.18 66.78 C 117.14 66.68 119.13 66.49 121.07 66.93 C 121.49 68.81 121.24 70.74 121.11 72.64 C 119.18 72.63 117.26 72.62 115.34 72.58 C 115.26 70.65 115.21 68.71 115.18 66.78 Z" />
<path fill="#0089d0" stroke="#0089d0" stroke-width="0.09375" opacity="1.00" d=" M 127.24 66.86 C 129.29 66.72 131.35 66.66 133.41 66.65 C 133.42 68.69 133.39 70.73 133.25 72.76 C 131.37 72.67 129.47 72.68 127.61 72.38 C 127.29 70.56 127.30 68.70 127.24 66.86 Z" />
<path fill="#0089d0" stroke="#0089d0" stroke-width="0.09375" opacity="1.00" d=" M 140.13 67.09 C 141.90 66.24 143.94 66.82 145.82 66.82 C 145.76 68.70 145.78 70.60 145.46 72.47 C 143.63 72.82 141.75 72.78 139.90 72.82 C 139.87 70.92 139.44 68.92 140.13 67.09 Z" />
<path fill="#0089d0" stroke="#0089d0" stroke-width="0.09375" opacity="1.00" d=" M 102.80 78.91 C 104.72 78.90 106.72 78.69 108.54 79.45 C 108.90 81.30 108.81 83.20 108.82 85.08 C 106.91 85.15 104.92 85.59 103.06 84.95 C 102.44 82.99 102.78 80.92 102.80 78.91 Z" />
<path fill="#0089d0" stroke="#0089d0" stroke-width="0.09375" opacity="1.00" d=" M 115.24 79.19 C 117.21 79.18 119.18 79.19 121.15 79.22 C 121.25 80.79 121.39 82.36 121.28 83.93 C 120.11 86.21 117.27 84.97 115.28 85.11 C 115.24 83.14 115.22 81.16 115.24 79.19 Z" />
<path fill="#0089d0" stroke="#0089d0" stroke-width="0.09375" opacity="1.00" d=" M 127.54 79.52 C 129.38 78.63 131.66 78.38 133.39 79.67 C 133.67 81.20 133.70 82.79 133.38 84.33 C 131.75 86.01 129.31 85.04 127.28 85.03 C 127.31 83.19 127.26 81.34 127.54 79.52 Z" />
<path fill="#0089d0" stroke="#0089d0" stroke-width="0.09375" opacity="1.00" d=" M 139.90 79.08 C 141.78 78.96 143.73 78.73 145.55 79.40 C 145.81 81.30 145.76 83.23 145.79 85.15 C 143.94 85.11 141.92 85.70 140.20 84.81 C 139.35 83.03 139.91 80.97 139.90 79.08 Z" />
<path fill="#0089d0" stroke="#0089d0" stroke-width="0.09375" opacity="1.00" d=" M 102.86 91.25 C 104.67 91.35 106.55 91.13 108.30 91.71 C 109.40 93.27 108.90 95.57 108.33 97.29 C 106.55 97.60 104.74 97.61 102.94 97.70 C 102.79 95.55 102.77 93.40 102.86 91.25 Z" />
<path fill="#0089d0" stroke="#0089d0" stroke-width="0.09375" opacity="1.00" d=" M 115.60 91.59 C 117.40 91.28 119.23 91.30 121.05 91.26 C 121.06 93.13 121.87 95.22 120.89 96.95 C 119.19 98.09 116.99 97.27 115.08 97.34 C 115.19 95.42 115.09 93.46 115.60 91.59 Z" />
<path fill="#0089d0" stroke="#0089d0" stroke-width="0.09375" opacity="1.00" d=" M 127.64 91.66 C 129.47 91.29 131.35 91.30 133.22 91.23 C 133.40 93.39 133.40 95.57 133.21 97.74 C 131.39 97.62 129.55 97.61 127.75 97.24 C 127.00 95.47 127.15 93.47 127.64 91.66 Z" />
<path fill="#0089d0" stroke="#0089d0" stroke-width="0.09375" opacity="1.00" d=" M 139.73 92.03 C 141.46 90.97 143.56 91.20 145.46 91.50 C 145.87 93.40 146.06 95.47 145.34 97.33 C 143.61 97.60 141.86 97.61 140.11 97.70 C 139.87 95.82 139.65 93.92 139.73 92.03 Z" />
<path fill="#0089d0" stroke="#0089d0" stroke-width="0.09375" opacity="1.00" d=" M 103.17 104.17 C 104.95 103.35 106.97 103.93 108.84 103.96 C 108.81 105.80 108.85 107.66 108.52 109.48 C 106.64 109.78 104.74 109.76 102.84 109.82 C 102.88 107.95 102.30 105.91 103.17 104.17 Z" />
<path fill="#0089d0" stroke="#0089d0" stroke-width="0.09375" opacity="1.00" d=" M 139.80 103.77 C 141.76 103.77 143.72 103.81 145.68 103.91 C 145.72 105.85 145.75 107.79 145.74 109.73 C 143.78 109.74 141.83 109.71 139.87 109.67 C 139.79 107.71 139.78 105.74 139.80 103.77 Z" />
</g>
<g id="#f5fafdff">
<path fill="#f5fafd" stroke="#f5fafd" stroke-width="0.09375" opacity="1.00" d=" M 113.66 42.95 C 113.53 40.92 114.84 38.32 117.11 38.27 C 122.30 38.02 127.50 38.18 132.69 38.31 C 133.33 39.01 133.97 39.70 134.61 40.39 C 134.82 46.16 134.75 51.94 134.67 57.71 C 134.02 58.36 133.36 59.02 132.71 59.67 C 127.52 59.70 122.32 59.88 117.14 59.67 C 115.14 59.88 113.70 57.85 113.70 56.02 C 113.54 51.67 113.60 47.31 113.66 42.95 M 117.35 41.91 C 117.20 46.66 117.23 51.40 117.30 56.15 C 118.42 56.16 119.54 56.17 120.66 56.17 C 120.72 54.39 120.77 52.61 120.83 50.83 C 123.08 50.84 125.33 50.86 127.58 50.92 C 127.65 52.67 127.69 54.43 127.89 56.18 C 128.71 56.17 130.33 56.15 131.15 56.14 C 131.76 51.50 131.40 46.81 131.30 42.15 C 130.42 42.16 128.67 42.18 127.79 42.19 C 127.74 43.87 127.71 45.56 127.68 47.24 C 125.43 47.29 123.18 47.30 120.94 47.28 C 120.81 45.68 120.75 44.06 120.49 42.47 C 119.45 42.25 118.40 42.06 117.35 41.91 Z" />
<path fill="#f5fafd" stroke="#f5fafd" stroke-width="0.09375" opacity="1.00" d=" M 96.32 51.14 C 96.09 49.58 97.79 48.99 99.01 48.86 C 102.91 48.56 106.82 48.80 110.73 48.85 C 110.66 53.48 109.98 59.84 115.15 62.09 C 120.05 62.91 125.08 62.32 130.03 62.48 C 133.79 63.02 137.70 59.82 137.59 55.96 C 137.73 53.58 137.67 51.20 137.70 48.82 C 142.71 48.89 147.95 48.01 152.73 49.99 C 152.72 72.89 152.82 95.79 152.68 118.69 C 152.02 119.36 151.37 120.04 150.73 120.72 C 144.73 120.86 138.74 120.74 132.74 120.82 C 132.58 116.27 132.86 111.71 132.60 107.17 C 132.58 104.92 130.13 103.39 128.05 103.57 C 124.75 103.53 121.39 103.25 118.14 103.91 C 116.75 104.78 115.75 106.30 115.76 107.98 C 115.56 112.25 115.75 116.52 115.76 120.80 C 109.49 120.75 103.22 120.89 96.95 120.67 C 96.37 118.16 96.19 115.58 96.24 113.01 C 96.36 92.39 96.18 71.76 96.32 51.14 M 102.94 54.31 C 102.79 56.22 102.51 58.18 102.94 60.08 C 104.88 60.55 106.89 60.27 108.86 60.15 C 108.81 58.28 108.85 56.40 108.48 54.56 C 106.64 54.34 104.79 54.35 102.94 54.31 M 139.96 54.28 C 139.95 56.13 139.34 58.13 140.14 59.90 C 141.89 60.80 143.96 60.17 145.85 60.21 C 145.77 58.33 145.78 56.44 145.43 54.59 C 143.62 54.35 141.78 54.34 139.96 54.28 M 102.71 66.69 C 102.73 68.73 102.80 70.76 102.95 72.80 C 104.81 72.77 106.68 72.80 108.52 72.51 C 108.84 70.65 108.80 68.75 108.83 66.87 C 106.79 66.73 104.75 66.68 102.71 66.69 M 115.18 66.78 C 115.21 68.71 115.26 70.65 115.34 72.58 C 117.26 72.62 119.18 72.63 121.11 72.64 C 121.24 70.74 121.49 68.81 121.07 66.93 C 119.13 66.49 117.14 66.68 115.18 66.78 M 127.24 66.86 C 127.30 68.70 127.29 70.56 127.61 72.38 C 129.47 72.68 131.37 72.67 133.25 72.76 C 133.39 70.73 133.42 68.69 133.41 66.65 C 131.35 66.66 129.29 66.72 127.24 66.86 M 140.13 67.09 C 139.44 68.92 139.87 70.92 139.90 72.82 C 141.75 72.78 143.63 72.82 145.46 72.47 C 145.78 70.60 145.76 68.70 145.82 66.82 C 143.94 66.82 141.90 66.24 140.13 67.09 M 102.80 78.91 C 102.78 80.92 102.44 82.99 103.06 84.95 C 104.92 85.59 106.91 85.15 108.82 85.08 C 108.81 83.20 108.90 81.30 108.54 79.45 C 106.72 78.69 104.72 78.90 102.80 78.91 M 115.24 79.19 C 115.22 81.16 115.24 83.14 115.28 85.11 C 117.27 84.97 120.11 86.21 121.28 83.93 C 121.39 82.36 121.25 80.79 121.15 79.22 C 119.18 79.19 117.21 79.18 115.24 79.19 M 127.54 79.52 C 127.26 81.34 127.31 83.19 127.28 85.03 C 129.31 85.04 131.75 86.01 133.38 84.33 C 133.70 82.79 133.67 81.20 133.39 79.67 C 131.66 78.38 129.38 78.63 127.54 79.52 M 139.90 79.08 C 139.91 80.97 139.35 83.03 140.20 84.81 C 141.92 85.70 143.94 85.11 145.79 85.15 C 145.76 83.23 145.81 81.30 145.55 79.40 C 143.73 78.73 141.78 78.96 139.90 79.08 M 102.86 91.25 C 102.77 93.40 102.79 95.55 102.94 97.70 C 104.74 97.61 106.55 97.60 108.33 97.29 C 108.90 95.57 109.40 93.27 108.30 91.71 C 106.55 91.13 104.67 91.35 102.86 91.25 M 115.60 91.59 C 115.09 93.46 115.19 95.42 115.08 97.34 C 116.99 97.27 119.19 98.09 120.89 96.95 C 121.87 95.22 121.06 93.13 121.05 91.26 C 119.23 91.30 117.40 91.28 115.60 91.59 M 127.64 91.66 C 127.15 93.47 127.00 95.47 127.75 97.24 C 129.55 97.61 131.39 97.62 133.21 97.74 C 133.40 95.57 133.40 93.39 133.22 91.23 C 131.35 91.30 129.47 91.29 127.64 91.66 M 139.73 92.03 C 139.65 93.92 139.87 95.82 140.11 97.70 C 141.86 97.61 143.61 97.60 145.34 97.33 C 146.06 95.47 145.87 93.40 145.46 91.50 C 143.56 91.20 141.46 90.97 139.73 92.03 M 103.17 104.17 C 102.30 105.91 102.88 107.95 102.84 109.82 C 104.74 109.76 106.64 109.78 108.52 109.48 C 108.85 107.66 108.81 105.80 108.84 103.96 C 106.97 103.93 104.95 103.35 103.17 104.17 M 139.80 103.77 C 139.78 105.74 139.79 107.71 139.87 109.67 C 141.83 109.71 143.78 109.74 145.74 109.73 C 145.75 107.79 145.72 105.85 145.68 103.91 C 143.72 103.81 141.76 103.77 139.80 103.77 Z" />
</g>
</svg>
