<?xml version="1.0" encoding="UTF-8" ?>
<!DOCTYPE svg PUBLIC "-//W3C//DTD SVG 1.1//EN" "http://www.w3.org/Graphics/SVG/1.1/DTD/svg11.dtd">
<svg width="40pt" height="40pt" viewBox="0 0 40 40" version="1.1" xmlns="http://www.w3.org/2000/svg">
<g id="#676767ff">
<path fill="#676767" stroke="#676767" stroke-width="0.09375" opacity="1.00" d=" M 12.30 4.36 C 16.43 3.83 20.66 3.96 24.81 4.24 C 28.30 6.54 31.31 9.78 33.74 13.17 C 34.15 19.45 33.87 25.78 33.89 32.08 C 34.07 34.69 31.73 37.12 29.09 36.89 C 24.02 36.97 18.95 36.98 13.89 36.88 C 11.28 37.08 9.05 34.68 9.12 32.14 C 9.00 24.74 9.10 17.34 9.07 9.94 C 8.88 7.66 9.96 5.08 12.30 4.36 M 11.50 12.00 C 11.68 19.02 11.26 26.05 11.70 33.06 C 12.02 33.37 12.65 33.99 12.97 34.29 C 18.65 34.62 24.38 34.61 30.05 34.30 C 30.37 34.02 30.99 33.45 31.31 33.17 C 31.88 26.97 31.34 20.71 31.55 14.48 C 29.15 14.10 26.57 14.56 24.29 13.71 C 23.97 11.36 24.02 8.99 23.82 6.63 C 20.21 6.65 16.58 6.33 12.98 6.78 C 10.95 7.75 11.69 10.21 11.50 12.00 Z" />
<path fill="#676767" stroke="#676767" stroke-width="0.09375" opacity="1.00" d=" M 14.41 16.96 C 19.13 16.57 23.92 16.58 28.64 16.95 C 28.73 17.50 28.92 18.60 29.01 19.15 C 24.02 19.34 19.02 19.36 14.02 19.14 C 14.12 18.60 14.32 17.50 14.41 16.96 Z" />
<path fill="#676767" stroke="#676767" stroke-width="0.09375" opacity="1.00" d=" M 14.46 22.03 C 18.34 21.50 22.29 21.72 26.19 21.92 C 26.16 22.48 26.12 23.61 26.10 24.17 C 22.05 24.51 17.99 24.34 13.94 24.15 C 14.07 23.62 14.33 22.56 14.46 22.03 Z" />
<path fill="#676767" stroke="#676767" stroke-width="0.09375" opacity="1.00" d=" M 14.53 27.18 C 19.12 26.58 23.90 26.70 28.51 27.13 C 28.69 27.64 29.05 28.67 29.23 29.18 C 24.10 29.57 18.94 29.58 13.81 29.17 C 13.99 28.67 14.35 27.68 14.53 27.18 Z" />
</g>
</svg>
