<?xml version="1.0" encoding="UTF-8" ?>
<!DOCTYPE svg PUBLIC "-//W3C//DTD SVG 1.1//EN" "http://www.w3.org/Graphics/SVG/1.1/DTD/svg11.dtd">
<svg width="1500pt" height="790pt" viewBox="0 0 1500 790" version="1.1" xmlns="http://www.w3.org/2000/svg">
<g id="#fdb813ff">
<path fill="#fdb813" stroke="#fdb813" stroke-width="0.09375" opacity="1.00" d=" M 805.94 23.12 C 850.82 7.76 898.59 0.83 945.98 2.56 C 980.47 4.20 1014.87 10.46 1047.33 22.39 C 1072.39 31.50 1096.28 43.80 1118.36 58.74 C 1135.11 70.29 1151.31 82.83 1165.38 97.59 C 1178.87 112.15 1190.84 128.02 1202.85 143.80 C 1239.55 136.61 1277.74 138.43 1314.06 146.97 C 1356.89 157.18 1396.97 178.04 1430.49 206.51 C 1444.95 218.35 1457.15 232.68 1468.26 247.64 C 1478.68 261.94 1488.44 276.78 1496.75 292.41 C 1497.83 293.99 1498.92 295.57 1500.00 297.18 L 1500.00 297.51 C 1494.42 291.17 1489.83 284.05 1484.35 277.63 C 1470.79 261.31 1455.94 246.03 1439.60 232.47 C 1409.23 207.01 1373.30 187.00 1333.97 179.92 C 1331.68 179.62 1329.39 179.34 1327.15 178.84 C 1310.13 176.62 1292.84 176.99 1275.93 179.85 C 1266.31 181.68 1256.78 183.99 1247.54 187.27 C 1240.18 189.36 1233.70 193.61 1226.38 195.80 C 1214.12 199.96 1200.48 201.71 1187.90 198.00 C 1177.88 194.93 1169.59 187.48 1164.57 178.39 C 1152.67 158.00 1137.59 139.64 1121.34 122.60 C 1106.22 107.24 1089.62 93.27 1071.47 81.62 C 1046.03 65.36 1017.53 54.07 988.01 47.89 C 954.12 40.97 918.95 41.24 885.05 47.93 C 871.75 50.72 858.61 54.29 845.78 58.77 C 802.21 74.36 762.05 100.64 732.40 136.38 C 706.65 167.21 688.37 204.42 680.87 243.95 C 674.08 280.87 676.78 319.28 687.39 355.22 C 689.05 359.52 685.17 362.89 683.17 366.27 C 676.30 376.78 666.08 385.19 654.03 389.00 C 639.76 393.64 624.57 394.40 609.67 394.76 C 612.99 388.68 616.38 382.16 616.34 375.05 C 616.04 367.75 611.08 361.55 604.95 358.01 C 590.56 349.79 573.34 347.25 557.02 349.41 C 535.48 351.38 514.59 360.92 499.45 376.43 C 489.02 386.34 481.01 398.50 474.38 411.20 C 464.23 430.95 457.39 452.28 452.90 473.99 C 446.02 507.19 445.58 541.25 446.82 575.01 C 449.09 606.50 453.86 638.31 466.05 667.66 C 474.89 689.33 487.96 709.92 506.75 724.26 C 519.64 734.32 535.08 740.83 551.10 743.89 C 577.78 748.95 605.96 745.83 630.83 734.90 C 646.95 727.81 661.67 717.65 674.43 705.55 C 676.54 715.80 675.49 726.61 672.63 736.62 C 668.46 751.20 657.19 762.86 643.91 769.70 C 625.78 779.25 605.16 782.60 584.95 784.29 C 572.95 784.64 560.93 786.27 548.95 784.75 C 528.65 783.79 508.43 778.92 490.23 769.80 C 462.16 756.10 439.87 732.63 423.79 706.18 C 402.06 670.34 391.73 628.67 388.32 587.19 C 387.26 578.51 387.68 569.73 386.69 561.04 C 386.84 551.71 386.19 542.33 387.27 533.04 C 387.75 511.80 390.57 490.63 395.30 469.92 C 403.90 432.58 420.54 396.67 445.96 367.79 C 467.45 342.91 496.99 325.25 529.02 317.90 C 543.09 314.54 557.56 313.40 571.97 312.77 C 583.35 312.80 594.75 313.96 605.97 315.92 C 603.41 300.42 603.12 284.71 603.64 269.05 C 605.78 233.55 616.10 198.74 632.55 167.27 C 650.62 132.89 675.97 102.44 706.22 78.12 C 735.87 54.06 770.05 35.94 805.94 23.12 Z" />
</g>
<g id="#ffffffff">
<path fill="#ffffff" stroke="#ffffff" stroke-width="0.09375" opacity="1.00" d=" M 1407.81 545.88 C 1411.40 540.25 1418.67 539.37 1424.76 539.06 C 1441.12 538.91 1457.49 539.04 1473.86 539.00 C 1469.74 549.87 1466.80 561.33 1466.49 572.99 C 1466.50 625.68 1466.49 678.36 1466.50 731.04 C 1466.74 735.82 1467.01 741.20 1470.40 744.93 C 1473.63 748.30 1478.48 749.06 1482.90 749.67 C 1480.20 757.98 1477.89 766.65 1472.99 773.99 C 1469.18 779.27 1462.13 780.14 1456.12 780.45 C 1439.91 780.58 1423.69 780.44 1407.48 780.51 C 1410.96 769.64 1414.00 758.48 1414.49 747.01 C 1414.50 693.72 1414.52 640.42 1414.48 587.12 C 1414.11 582.47 1414.06 577.01 1410.31 573.65 C 1407.11 570.66 1402.55 570.03 1398.39 569.55 C 1400.97 561.47 1403.30 553.13 1407.81 545.88 Z" />
<path fill="#ffffff" stroke="#ffffff" stroke-width="0.09375" opacity="1.00" d=" M 1144.78 564.80 C 1157.36 561.79 1169.65 557.37 1181.00 551.11 C 1181.01 568.99 1180.99 586.87 1181.01 604.75 C 1193.87 604.79 1207.78 605.81 1219.12 598.51 C 1216.94 607.57 1214.67 616.78 1210.20 625.03 C 1207.55 629.93 1202.48 633.15 1197.07 634.11 C 1191.77 635.08 1186.35 634.66 1181.00 634.75 C 1181.00 664.83 1181.00 694.90 1181.00 724.98 C 1180.99 732.58 1180.44 740.74 1184.32 747.60 C 1186.32 751.43 1190.90 753.71 1195.17 752.86 C 1199.42 752.17 1203.00 749.55 1207.10 748.36 C 1208.91 747.42 1210.78 748.69 1212.27 749.71 C 1216.67 753.38 1219.87 758.24 1223.12 762.91 C 1209.23 773.84 1192.99 783.39 1174.89 784.14 C 1164.47 784.44 1153.35 782.71 1144.91 776.14 C 1136.98 770.17 1132.91 760.50 1131.02 751.03 C 1128.42 738.83 1129.07 726.31 1129.00 713.93 C 1129.00 687.54 1129.00 661.14 1129.00 634.75 C 1124.61 634.86 1120.14 634.32 1115.84 635.40 C 1111.38 636.41 1107.15 638.15 1102.99 639.99 C 1105.23 630.13 1106.45 619.25 1113.18 611.24 C 1117.64 605.80 1125.02 604.19 1131.75 604.74 C 1131.70 595.44 1131.70 586.10 1132.96 576.87 C 1133.60 570.72 1139.26 566.52 1144.78 564.80 Z" />
<path fill="#ffffff" stroke="#ffffff" stroke-width="0.09375" opacity="1.00" d=" M 724.80 566.90 C 728.79 560.38 737.35 560.16 744.14 559.59 C 761.19 559.38 778.25 559.57 795.30 559.49 C 790.38 570.64 787.60 582.73 787.51 594.93 C 787.49 612.70 787.50 630.48 787.50 648.25 C 804.42 648.25 821.33 648.25 838.25 648.25 C 838.26 636.83 838.24 625.41 838.26 614.00 C 838.24 608.42 838.29 602.48 835.68 597.40 C 832.71 592.38 826.67 591.01 821.41 589.82 C 824.17 581.84 826.49 573.51 831.26 566.44 C 835.69 560.29 844.19 560.13 851.04 559.57 C 867.80 559.41 884.57 559.55 901.33 559.50 C 896.87 570.10 894.08 581.49 893.99 593.03 C 894.01 632.37 893.99 671.71 894.00 711.05 C 894.36 720.88 892.94 730.99 895.64 740.59 C 897.71 746.77 904.57 749.22 910.47 749.95 C 907.70 758.29 905.40 767.07 900.24 774.32 C 895.56 779.87 887.51 779.84 880.87 780.39 C 864.24 780.66 847.60 780.39 830.96 780.52 C 836.08 768.74 838.84 755.88 838.25 743.01 C 838.25 721.00 838.25 699.00 838.25 677.00 C 821.33 677.01 804.41 676.98 787.49 677.02 C 787.54 693.36 787.44 709.71 787.53 726.06 C 787.93 731.81 787.58 738.09 790.78 743.16 C 793.80 747.69 799.42 749.22 804.52 749.94 C 802.25 757.23 799.93 764.58 796.23 771.29 C 794.76 773.95 792.73 776.48 789.85 777.67 C 784.24 780.06 778.02 780.23 772.02 780.49 C 756.22 780.51 740.42 780.50 724.62 780.49 C 729.06 769.88 732.18 758.56 732.26 746.99 C 732.23 701.65 732.27 656.32 732.24 610.98 C 731.95 606.41 731.83 601.54 729.55 597.44 C 726.71 592.55 720.83 590.80 715.58 590.05 C 717.88 582.08 720.43 574.01 724.80 566.90 Z" />
<path fill="#ffffff" stroke="#ffffff" stroke-width="0.09375" opacity="1.00" d=" M 97.50 575.59 C 104.44 575.41 111.35 575.59 118.20 576.80 C 123.13 578.05 128.07 579.31 132.82 581.18 C 137.27 582.97 141.68 584.91 145.92 587.18 C 150.05 589.20 154.07 591.43 157.98 593.86 C 167.22 599.32 175.83 605.72 184.53 611.98 C 184.57 612.45 184.64 613.39 184.67 613.87 C 184.00 615.17 183.38 616.51 182.70 617.83 C 182.62 618.49 182.47 619.83 182.39 620.50 C 182.21 620.52 181.84 620.56 181.65 620.59 C 181.51 621.76 181.36 622.95 181.19 624.14 C 179.21 631.43 178.55 639.06 177.36 646.52 L 176.68 646.59 C 176.59 647.85 176.49 649.13 176.40 650.42 C 176.21 650.44 175.84 650.48 175.65 650.50 C 175.54 651.16 175.32 652.47 175.21 653.13 C 171.27 663.64 163.58 672.35 154.09 678.23 C 151.44 679.96 148.68 681.51 145.93 683.08 C 142.03 685.20 138.02 687.09 134.05 689.09 C 129.49 691.65 124.75 693.87 120.10 696.26 C 116.10 698.28 112.05 700.18 108.11 702.31 C 104.09 704.27 100.05 706.19 96.12 708.31 C 91.46 710.36 87.20 713.24 82.41 715.00 C 83.00 717.89 84.45 720.49 85.66 723.16 C 87.90 726.93 90.04 730.77 92.75 734.24 C 95.37 737.59 98.43 740.59 101.75 743.27 C 104.67 745.40 107.76 747.30 111.11 748.67 C 112.42 749.06 113.64 749.72 114.88 750.30 C 115.96 750.46 117.04 750.65 118.12 750.85 C 126.84 753.34 136.23 752.15 144.79 749.71 C 145.87 749.50 146.95 749.32 148.03 749.15 C 153.20 747.29 158.64 746.34 164.05 745.54 C 167.68 745.27 171.73 744.79 174.96 746.86 C 181.15 750.59 185.52 756.56 189.89 762.18 C 186.97 764.20 183.88 765.97 180.79 767.72 C 176.64 770.08 172.40 772.27 168.09 774.33 C 163.70 776.27 159.28 778.16 154.75 779.79 C 150.31 781.52 145.71 782.77 141.12 784.06 C 139.75 784.29 138.39 784.60 137.12 785.18 C 135.26 785.42 133.39 785.61 131.51 785.73 L 131.53 786.41 C 129.60 786.49 127.67 786.63 125.74 786.83 C 120.63 788.15 115.23 787.63 110.01 788.23 C 104.42 787.82 98.71 788.02 93.20 786.84 C 91.14 786.62 89.07 786.45 87.01 786.17 C 85.75 785.45 84.29 785.35 82.89 785.15 C 81.62 784.66 80.30 784.31 78.98 783.99 C 75.96 783.08 72.97 782.07 70.05 780.88 C 68.64 780.29 67.24 779.69 65.82 779.14 C 45.50 769.41 29.70 751.55 20.88 730.98 C 20.71 730.47 20.37 729.47 20.20 728.97 C 19.76 727.97 19.35 726.98 18.97 725.98 C 18.67 724.96 18.34 723.97 17.97 722.99 C 16.74 719.41 16.12 715.66 14.88 712.09 C 14.14 707.73 13.42 703.38 12.83 699.01 C 11.91 691.03 12.20 682.98 12.24 674.97 C 12.43 671.68 12.20 668.31 13.17 665.14 C 13.41 662.61 13.60 660.07 13.74 657.55 L 14.37 657.56 C 15.07 651.25 16.89 645.06 19.12 639.13 C 19.26 638.55 19.55 637.40 19.69 636.82 C 20.28 635.59 20.83 634.36 21.39 633.13 C 22.62 629.95 24.30 626.99 25.75 623.91 C 26.03 623.43 26.59 622.46 26.87 621.98 C 34.91 607.88 46.19 595.42 60.28 587.19 C 63.46 585.29 66.81 583.71 70.22 582.29 C 71.18 581.87 72.14 581.47 73.10 581.09 C 74.14 580.73 75.17 580.39 76.20 580.05 C 80.31 578.60 84.64 578.01 88.82 576.84 C 91.66 576.56 94.51 576.32 97.36 576.27 C 97.40 576.10 97.47 575.76 97.50 575.59 M 93.98 611.74 C 87.93 615.29 83.20 620.78 80.29 627.13 C 77.76 631.44 76.57 636.33 74.83 640.97 C 74.61 642.47 74.45 644.01 74.34 645.54 L 73.65 645.54 C 73.51 647.44 73.36 649.33 73.18 651.24 C 71.79 658.98 71.88 667.10 73.05 674.88 C 73.18 675.61 73.44 677.06 73.57 677.79 C 77.62 675.65 81.84 673.87 85.92 671.80 C 89.65 669.97 93.30 667.99 97.09 666.27 C 98.02 665.70 98.96 665.14 99.90 664.59 C 102.27 663.49 104.56 662.21 106.79 660.83 C 112.07 657.23 117.15 653.14 120.97 647.95 C 126.02 641.25 128.86 632.16 126.30 623.92 C 124.85 618.01 120.33 613.31 115.11 610.44 C 108.25 607.70 100.54 608.62 93.98 611.74 Z" />
<path fill="#ffffff" stroke="#ffffff" stroke-width="0.09375" opacity="1.00" d=" M 335.62 580.68 C 343.47 580.75 351.31 580.25 359.16 580.12 C 361.58 579.45 364.11 579.56 366.60 579.39 C 365.37 583.05 363.86 586.59 362.31 590.13 C 358.63 598.03 354.61 605.77 350.29 613.34 C 350.02 613.81 349.48 614.74 349.21 615.21 C 345.71 621.39 341.88 627.37 338.29 633.49 C 336.22 636.75 334.25 640.07 332.29 643.40 C 328.07 650.22 323.93 657.10 319.81 663.99 C 317.94 667.04 316.07 670.10 314.21 673.17 C 312.45 676.11 310.63 679.02 308.90 681.98 C 306.66 685.65 304.38 689.29 302.20 693.00 C 296.36 702.58 290.62 712.23 284.72 721.78 C 284.46 722.23 283.95 723.15 283.69 723.61 C 282.03 726.30 280.38 728.99 278.73 731.70 C 278.23 732.53 277.73 733.37 277.24 734.22 C 275.59 736.92 273.92 739.62 272.31 742.34 C 270.80 744.83 269.34 747.34 267.67 749.72 C 292.92 749.62 318.19 750.23 343.43 749.31 L 343.54 748.67 C 348.91 748.39 354.06 746.68 359.21 745.29 C 360.42 744.76 361.65 744.28 362.88 743.80 C 364.63 743.14 366.32 742.33 367.98 741.46 C 368.68 741.60 369.39 741.76 370.10 741.94 C 369.74 742.07 369.03 742.34 368.68 742.47 C 368.59 743.69 368.48 744.92 368.35 746.16 C 367.54 747.36 367.46 748.83 367.16 750.22 C 365.64 754.89 364.32 759.64 362.31 764.14 C 359.16 771.12 354.12 777.75 346.96 780.92 C 342.06 783.07 336.62 783.13 331.38 783.47 C 303.58 784.15 275.80 782.35 248.03 781.80 C 226.84 781.13 205.66 782.26 184.52 783.60 C 187.68 776.18 190.81 768.74 194.72 761.68 C 196.31 758.63 198.02 755.66 199.67 752.65 C 202.06 748.74 204.42 744.80 206.87 740.93 C 208.65 738.01 210.36 735.04 212.20 732.16 C 218.58 721.81 224.85 711.39 231.26 701.06 C 232.72 698.60 234.21 696.16 235.72 693.73 C 235.99 693.28 236.55 692.37 236.82 691.92 C 240.26 686.31 243.68 680.69 247.12 675.08 C 249.55 671.20 251.85 667.24 254.32 663.39 C 254.81 662.53 255.30 661.68 255.81 660.84 C 256.99 659.01 258.09 657.12 259.22 655.27 C 261.54 651.52 263.82 647.76 266.13 644.01 C 268.40 640.33 270.65 636.64 272.91 632.95 C 276.89 626.63 280.52 620.08 284.77 613.94 C 283.55 613.66 282.32 613.52 281.08 613.57 C 262.77 613.66 244.45 613.54 226.14 613.63 C 218.42 614.08 210.67 615.00 203.22 617.13 C 200.16 617.80 197.25 618.98 194.26 619.89 C 195.70 614.29 197.05 608.62 199.18 603.23 C 199.32 602.64 199.60 601.45 199.75 600.86 C 200.33 599.59 200.89 598.32 201.38 597.03 C 203.67 590.82 207.90 585.05 214.01 582.20 C 215.57 581.43 217.35 581.38 218.99 580.83 C 236.14 579.53 253.37 580.74 270.54 580.62 L 270.56 581.35 C 292.20 581.70 313.84 581.57 335.49 581.39 L 335.62 580.68 Z" />
<path fill="#ffffff" stroke="#ffffff" stroke-width="0.09375" opacity="1.00" d=" M 998.56 601.80 C 1013.47 600.35 1029.00 601.17 1042.98 606.98 C 1060.21 613.80 1073.39 628.58 1080.53 645.43 C 1088.76 664.47 1089.99 685.69 1088.57 706.13 C 1086.92 726.46 1080.33 747.13 1066.24 762.31 C 1055.44 774.12 1040.15 781.25 1024.38 783.25 C 1007.41 785.38 989.41 784.11 973.91 776.36 C 958.08 768.70 946.49 754.10 940.01 738.00 C 934.66 724.69 932.52 710.30 932.24 696.02 C 932.00 682.29 933.21 668.42 937.18 655.23 C 941.44 640.87 949.29 627.35 960.74 617.55 C 971.27 608.45 984.82 603.35 998.56 601.80 M 1004.41 632.68 C 1001.33 633.99 998.80 636.33 996.87 639.03 C 992.06 645.93 990.12 654.33 988.77 662.51 C 986.43 678.23 986.33 694.21 987.34 710.05 C 988.07 719.31 989.25 728.67 992.38 737.47 C 994.60 743.31 997.84 749.40 1003.70 752.26 C 1009.69 755.40 1017.53 753.98 1022.20 749.14 C 1027.13 743.93 1029.52 736.92 1031.17 730.08 C 1034.60 715.01 1034.66 699.44 1034.47 684.06 C 1033.97 672.70 1033.17 661.19 1029.83 650.25 C 1027.93 644.20 1025.10 638.03 1019.82 634.21 C 1015.44 630.97 1009.36 630.65 1004.41 632.68 Z" />
<path fill="#ffffff" stroke="#ffffff" stroke-width="0.09375" opacity="1.00" d=" M 1291.46 603.69 C 1303.34 600.78 1316.09 599.98 1327.97 603.39 C 1347.50 609.13 1364.65 620.76 1380.69 632.98 C 1376.46 641.74 1375.99 651.56 1374.12 660.96 C 1372.25 670.24 1367.48 679.05 1360.10 685.11 C 1352.50 691.26 1343.66 695.58 1334.94 699.90 C 1320.62 706.99 1306.45 714.38 1292.11 721.44 C 1295.91 730.66 1301.14 739.74 1309.27 745.79 C 1316.01 750.97 1324.59 753.52 1333.06 753.27 C 1344.99 753.04 1356.05 746.92 1368.03 747.31 C 1375.71 748.92 1380.40 756.13 1384.80 762.03 C 1366.51 773.57 1345.88 782.17 1324.14 783.83 C 1306.49 785.21 1288.02 782.56 1272.55 773.53 C 1255.55 763.58 1242.89 746.87 1236.86 728.22 C 1232.97 716.58 1231.50 704.22 1231.74 691.98 C 1231.55 670.09 1237.94 647.79 1251.57 630.45 C 1261.47 617.50 1275.54 607.58 1291.46 603.69 M 1296.63 636.59 C 1291.26 642.21 1288.08 649.55 1286.02 656.95 C 1283.29 667.43 1282.77 678.47 1284.49 689.16 C 1292.14 685.70 1299.58 681.81 1307.10 678.07 C 1314.72 674.22 1321.92 668.99 1326.70 661.80 C 1330.21 656.48 1331.67 649.81 1330.34 643.54 C 1329.02 637.55 1324.49 632.27 1318.55 630.52 C 1310.86 628.27 1302.16 630.87 1296.63 636.59 Z" />
</g>
</svg>
