<?xml version="1.0" encoding="UTF-8" ?>
<!DOCTYPE svg PUBLIC "-//W3C//DTD SVG 1.1//EN" "http://www.w3.org/Graphics/SVG/1.1/DTD/svg11.dtd">
<svg width="1505pt" height="792pt" viewBox="0 0 1505 792" version="1.1" xmlns="http://www.w3.org/2000/svg">
<g id="#fdb813ff">
<path fill="#fdb813" stroke="#fdb813" stroke-width="0.09375" opacity="1.00" d=" M 911.00 5.09 C 967.84 1.25 1025.87 11.31 1077.49 35.70 C 1095.93 44.45 1113.58 54.86 1130.08 66.88 C 1147.20 79.24 1163.44 93.00 1177.00 109.26 C 1187.05 121.07 1196.46 133.42 1205.82 145.78 C 1250.04 137.30 1296.34 141.27 1339.03 155.23 C 1376.99 167.67 1411.96 188.69 1441.50 215.50 C 1454.97 228.15 1466.51 242.68 1477.11 257.78 C 1485.20 269.52 1492.90 281.59 1499.68 294.14 C 1500.69 295.77 1501.66 297.42 1502.65 299.08 C 1497.98 294.07 1494.45 288.13 1490.01 282.93 C 1465.39 252.48 1435.97 225.50 1401.88 206.01 C 1382.23 194.89 1360.95 186.38 1338.69 182.33 C 1335.57 181.37 1332.23 181.78 1329.16 180.72 C 1302.22 177.26 1274.62 180.67 1249.07 189.77 C 1243.18 191.45 1238.03 194.86 1232.25 196.79 C 1220.65 201.25 1207.92 203.22 1195.59 201.22 C 1184.63 199.21 1174.90 192.25 1169.05 182.83 C 1158.84 165.04 1146.28 148.67 1132.57 133.45 C 1115.97 115.00 1097.12 98.52 1076.39 84.85 C 1051.38 68.60 1023.38 56.96 994.24 50.65 C 959.38 42.85 923.01 43.18 888.02 49.91 C 850.89 57.58 815.08 72.26 783.95 94.00 C 736.72 126.66 701.26 176.34 686.98 232.07 C 676.55 272.84 678.39 316.30 690.21 356.55 C 690.60 357.96 690.96 359.45 690.74 360.94 C 684.37 372.55 675.22 383.24 662.89 388.70 C 647.21 395.57 629.74 396.23 612.89 396.77 C 616.29 389.51 621.02 381.56 618.68 373.26 C 616.75 365.12 609.20 359.99 601.92 356.97 C 582.79 348.40 560.76 349.46 541.00 355.15 C 525.09 359.98 510.66 369.23 499.44 381.47 C 485.03 396.48 475.35 415.34 467.84 434.58 C 459.03 457.77 453.75 482.23 451.26 506.89 C 450.38 512.57 450.69 518.35 449.72 524.02 C 449.19 541.68 449.21 559.36 449.78 577.02 C 450.74 580.59 450.33 584.35 450.70 588.00 C 451.86 599.03 452.96 610.11 455.15 620.99 C 456.72 629.73 458.63 638.44 461.18 646.96 C 465.90 663.57 472.49 679.74 481.57 694.46 C 490.78 709.44 503.02 722.75 518.05 732.02 C 537.03 743.94 559.81 748.57 582.01 748.23 C 617.52 747.88 651.77 732.19 677.20 707.78 C 678.99 711.21 678.20 715.24 678.50 718.98 C 678.51 733.42 674.10 748.36 663.91 758.93 C 652.17 771.42 635.58 777.85 619.23 781.68 C 609.31 784.16 599.12 785.21 588.98 786.24 C 576.30 786.58 563.59 788.37 550.94 786.64 C 516.07 785.18 481.82 770.62 456.94 746.08 C 434.06 724.26 417.74 696.23 407.21 666.59 C 398.37 641.42 393.35 615.01 391.27 588.44 C 390.14 580.34 390.87 572.10 389.68 564.00 C 389.94 554.94 389.09 545.81 390.18 536.80 C 391.16 499.98 397.80 462.99 412.15 428.94 C 423.11 403.46 438.29 379.52 458.16 360.07 C 472.07 346.63 488.41 335.71 506.27 328.25 C 524.86 320.46 544.91 316.28 565.03 315.40 C 579.68 313.84 594.48 315.54 608.96 317.93 C 605.03 291.49 605.40 264.26 611.10 238.11 C 618.80 198.52 636.69 161.18 661.19 129.25 C 683.99 99.39 712.88 74.39 745.05 55.10 C 764.56 43.36 785.32 33.79 806.66 25.90 C 840.23 14.10 875.52 7.22 911.00 5.09 Z" />
<path fill="#fdb813" stroke="#fdb813" stroke-width="0.09375" opacity="1.00" d=" M 363.34 596.90 C 364.53 594.23 365.71 591.56 366.96 588.92 C 365.90 591.64 364.80 594.36 363.34 596.90 Z" />
<path fill="#fdb813" stroke="#fdb813" stroke-width="0.09375" opacity="1.00" d=" M 307.30 691.83 C 308.44 688.50 310.85 685.89 312.72 682.98 C 310.99 686.00 310.25 689.68 307.30 691.83 Z" />
<path fill="#fdb813" stroke="#fdb813" stroke-width="0.09375" opacity="1.00" d=" M 214.41 735.03 C 215.63 732.56 217.32 730.33 218.80 728.01 C 217.63 730.50 216.25 732.96 214.41 735.03 Z" />
</g>
<g id="#0089d0ff">
<path fill="#0089d0" stroke="#0089d0" stroke-width="0.09375" opacity="1.00" d=" M 1410.25 548.35 C 1414.03 541.96 1422.25 540.80 1429.03 540.99 C 1445.06 541.01 1461.08 541.00 1477.11 541.00 C 1472.58 552.77 1469.38 565.32 1469.79 578.02 C 1469.81 629.68 1469.79 681.35 1469.80 733.01 C 1469.78 737.49 1470.23 742.30 1472.89 746.08 C 1476.10 749.92 1481.32 751.00 1486.08 751.39 C 1483.59 759.89 1481.04 768.61 1476.16 776.09 C 1472.06 781.82 1464.39 782.30 1457.98 782.77 C 1442.07 782.81 1426.16 782.82 1410.26 782.76 C 1413.88 770.81 1417.56 758.57 1417.21 745.95 C 1417.19 693.98 1417.21 642.01 1417.20 590.04 C 1417.13 585.77 1416.98 581.20 1414.69 577.46 C 1411.66 573.15 1406.01 572.20 1401.14 571.70 C 1403.64 563.74 1406.01 555.60 1410.25 548.35 Z" />
<path fill="#0089d0" stroke="#0089d0" stroke-width="0.09375" opacity="1.00" d=" M 1148.08 566.52 C 1160.56 563.50 1172.78 559.14 1184.00 552.86 C 1183.99 570.74 1184.00 588.63 1184.00 606.51 C 1196.81 606.51 1210.74 607.68 1222.00 600.30 C 1221.57 605.72 1219.57 610.87 1218.07 616.07 C 1215.73 622.60 1213.32 630.04 1206.97 633.76 C 1200.03 637.85 1191.70 636.87 1184.00 636.98 C 1183.99 667.65 1184.00 698.32 1184.00 729.00 C 1183.88 735.74 1184.13 742.85 1187.20 749.00 C 1188.68 752.15 1191.76 754.20 1195.14 754.86 C 1201.60 755.71 1206.68 749.38 1213.05 750.16 C 1218.94 753.45 1222.56 759.55 1226.31 764.96 C 1211.25 776.97 1192.97 787.34 1173.08 786.23 C 1163.21 786.08 1152.92 783.30 1145.58 776.41 C 1137.72 769.15 1134.40 758.36 1132.99 748.05 C 1131.51 740.12 1132.12 732.04 1132.00 724.03 C 1132.00 695.01 1132.00 666.00 1132.00 636.98 C 1127.35 637.13 1122.59 636.43 1118.07 637.78 C 1113.85 638.78 1109.87 640.54 1105.88 642.20 C 1106.75 636.05 1108.32 630.01 1110.13 624.08 C 1111.96 618.07 1115.45 612.27 1120.99 609.05 C 1125.06 606.66 1129.91 606.42 1134.52 606.50 C 1134.48 597.53 1134.67 588.53 1135.67 579.62 C 1136.01 572.93 1142.10 568.24 1148.08 566.52 Z" />
<path fill="#0089d0" stroke="#0089d0" stroke-width="0.09375" opacity="1.00" d=" M 728.59 567.47 C 733.27 561.86 741.31 562.04 747.96 561.27 C 764.80 561.21 781.66 561.04 798.50 561.36 C 793.91 572.33 790.69 584.08 790.83 596.05 C 790.75 614.04 790.81 632.03 790.80 650.02 C 807.54 650.03 824.28 650.03 841.02 650.02 C 841.01 636.68 841.05 623.34 841.01 610.01 C 840.53 605.12 839.91 599.39 835.63 596.25 C 832.34 593.62 828.08 593.08 824.17 591.94 C 826.99 583.83 829.30 575.31 834.24 568.17 C 839.02 561.80 847.79 562.01 854.95 561.24 C 871.47 561.26 888.00 561.00 904.51 561.37 C 899.49 573.59 896.68 586.76 897.00 599.99 C 897.01 643.32 896.99 686.66 897.00 730.00 C 897.64 735.22 897.33 740.98 900.38 745.53 C 903.49 749.67 908.83 751.01 913.68 751.81 C 910.97 760.25 908.59 769.11 903.38 776.42 C 898.45 782.33 889.98 781.93 883.01 782.71 C 866.61 782.91 850.20 782.75 833.80 782.78 C 837.55 773.24 840.52 763.27 841.03 752.98 C 841.02 728.32 841.04 703.66 841.02 679.00 C 824.28 679.00 807.54 679.00 790.80 679.00 C 790.80 695.00 790.78 711.01 790.81 727.01 C 791.00 733.06 790.65 739.63 793.89 745.02 C 796.89 749.71 802.73 750.87 807.80 751.89 C 805.16 759.84 802.81 768.07 798.26 775.19 C 796.05 778.84 791.96 780.66 787.93 781.46 C 776.06 783.56 763.97 782.57 751.99 782.80 C 743.80 782.72 735.61 782.95 727.42 782.67 C 731.80 771.66 735.30 760.01 735.04 748.04 C 735.01 702.37 735.05 656.69 735.02 611.01 C 734.59 606.02 734.09 600.39 730.20 596.76 C 726.90 593.83 722.43 593.02 718.29 592.01 C 721.04 583.60 723.38 574.76 728.59 567.47 Z" />
<path fill="#0089d0" stroke="#0089d0" stroke-width="0.09375" opacity="1.00" d=" M 50.77 597.81 C 68.38 582.25 92.73 575.57 115.92 577.60 C 131.26 579.76 145.57 586.39 158.78 594.24 C 161.25 595.87 163.74 597.49 166.34 598.92 C 173.81 603.48 180.86 608.70 187.79 614.04 L 188.06 615.00 C 183.87 624.86 182.60 635.55 180.89 646.04 C 179.82 653.21 176.73 659.94 172.85 666.01 C 165.10 676.92 153.07 683.59 141.29 689.32 C 127.48 696.56 113.44 703.34 99.54 710.41 C 94.85 712.53 90.55 715.44 85.73 717.32 C 89.62 727.91 95.93 738.01 104.96 744.97 C 114.13 752.28 126.40 754.79 137.89 753.48 C 146.33 752.01 154.56 749.63 162.92 747.80 C 167.48 747.23 172.37 746.28 176.81 747.92 C 183.80 751.50 188.68 757.97 193.15 764.22 C 175.90 775.83 156.32 784.14 135.92 788.26 C 111.19 792.43 84.21 790.99 62.23 777.86 C 59.43 775.97 56.66 774.03 53.79 772.23 C 47.50 767.62 41.98 761.98 37.17 755.85 C 35.59 753.45 33.90 751.12 32.19 748.82 C 20.35 731.31 15.08 709.89 14.88 688.92 C 14.01 683.93 15.23 678.95 15.09 673.95 C 16.58 645.32 28.90 616.73 50.77 597.81 M 88.03 622.00 C 80.68 631.89 77.19 644.18 76.12 656.34 C 74.73 664.01 75.59 671.80 76.77 679.42 C 84.81 675.31 93.04 671.58 101.01 667.32 C 110.89 662.46 120.53 655.84 126.09 646.10 C 129.96 639.91 130.68 632.05 128.80 625.08 C 126.32 617.51 119.12 611.53 111.06 611.18 C 102.18 610.54 93.30 614.87 88.03 622.00 Z" />
<path fill="#0089d0" stroke="#0089d0" stroke-width="0.09375" opacity="1.00" d=" M 284.01 583.08 C 312.63 583.87 341.25 582.82 369.82 581.14 C 369.12 583.82 368.13 586.41 366.96 588.92 C 365.71 591.56 364.53 594.23 363.34 596.90 C 358.96 606.08 354.03 615.00 348.70 623.67 C 347.02 626.13 345.39 628.64 344.06 631.32 C 342.13 634.90 339.92 638.32 337.72 641.74 C 336.06 644.21 334.50 646.75 333.10 649.38 C 332.07 651.16 331.07 652.97 329.94 654.70 C 328.26 657.12 326.63 659.59 325.31 662.23 C 321.25 669.22 317.07 676.16 312.72 682.98 C 310.85 685.89 308.44 688.50 307.30 691.83 C 303.39 698.93 299.02 705.80 294.75 712.70 C 293.06 715.18 291.47 717.73 290.08 720.40 C 283.94 730.87 277.52 741.17 271.27 751.58 C 285.51 751.54 299.75 751.57 314.00 751.56 C 328.48 751.44 343.27 752.47 357.36 748.37 C 362.65 747.04 367.48 744.38 372.74 742.97 C 371.53 748.75 370.07 754.49 367.87 759.99 C 367.70 760.49 367.34 761.49 367.16 761.99 C 364.87 769.62 360.17 776.75 353.57 781.33 C 349.56 783.87 344.82 785.21 340.08 785.30 C 324.80 787.16 309.38 786.01 294.07 785.28 C 272.03 785.05 250.03 783.30 227.97 783.99 C 217.96 783.61 208.03 785.32 198.03 785.17 C 194.50 785.24 191.03 785.95 187.53 786.37 C 189.17 779.23 192.83 772.74 196.07 766.23 C 197.50 763.89 198.83 761.49 199.99 759.02 C 202.36 754.21 205.31 749.73 208.16 745.21 C 209.83 742.82 211.40 740.37 212.71 737.78 C 213.17 736.78 213.74 735.87 214.41 735.03 C 216.25 732.96 217.63 730.50 218.80 728.01 C 220.58 724.22 223.09 720.85 225.26 717.29 C 226.94 714.81 228.56 712.28 229.94 709.62 C 234.59 701.76 239.40 694.00 244.23 686.24 C 245.89 683.85 247.45 681.38 248.83 678.81 L 249.19 678.20 C 250.80 675.72 252.43 673.25 253.80 670.62 C 254.24 669.81 254.72 669.03 255.22 668.27 C 256.89 665.85 258.48 663.38 259.83 660.78 C 268.79 645.72 278.15 630.92 287.16 615.90 C 267.77 615.88 248.39 615.87 229.00 615.90 C 218.10 616.26 207.47 619.02 197.06 622.09 C 197.49 617.40 199.49 613.08 200.69 608.57 C 203.14 600.38 206.06 591.51 213.18 586.16 C 217.26 582.69 222.88 582.27 228.00 582.08 C 246.68 581.94 265.36 581.99 284.01 583.08 Z" />
<path fill="#0089d0" stroke="#0089d0" stroke-width="0.09375" opacity="1.00" d=" M 966.26 617.24 C 976.80 609.15 989.80 604.77 1002.94 603.43 C 1016.98 602.21 1031.52 603.11 1044.76 608.28 C 1059.74 613.89 1072.05 625.42 1079.72 639.34 C 1087.32 652.60 1090.73 667.85 1091.96 682.96 C 1092.05 690.30 1091.98 697.65 1091.99 704.99 C 1090.76 725.95 1084.54 747.47 1070.31 763.40 C 1057.81 777.72 1038.87 785.53 1020.05 786.01 C 1003.35 787.28 985.82 784.54 971.41 775.55 C 963.94 770.95 957.59 764.68 952.44 757.61 C 952.40 757.56 952.34 757.47 952.30 757.42 C 940.18 740.56 935.57 719.50 935.03 699.05 C 934.65 683.82 936.19 668.41 941.02 653.90 C 945.84 639.70 954.29 626.45 966.26 617.24 M 1009.26 634.19 C 1000.97 636.71 996.91 645.28 994.54 652.93 C 990.51 667.24 989.80 682.25 989.97 697.04 C 989.82 707.04 990.74 717.06 992.34 726.93 L 991.85 727.72 L 992.27 728.68 L 993.13 728.82 C 992.70 731.09 993.82 733.29 994.30 735.48 C 996.31 742.24 999.28 749.43 1005.48 753.37 C 1010.90 756.88 1018.29 756.44 1023.37 752.48 C 1023.41 752.45 1023.49 752.38 1023.54 752.35 C 1028.83 748.00 1031.39 741.31 1033.24 734.92 C 1036.78 721.61 1037.38 707.75 1037.20 694.05 C 1037.39 681.15 1036.67 668.15 1033.59 655.58 C 1031.58 648.22 1028.71 640.33 1022.07 635.93 C 1018.37 633.30 1013.52 633.43 1009.26 634.19 Z" />
<path fill="#0089d0" stroke="#0089d0" stroke-width="0.09375" opacity="1.00" d=" M 1292.90 605.90 C 1306.80 602.12 1321.92 601.55 1335.58 606.62 C 1353.24 612.95 1369.17 623.42 1383.82 634.98 C 1380.20 642.92 1379.20 651.62 1377.86 660.14 C 1376.32 670.24 1371.67 680.06 1363.80 686.75 C 1354.57 694.50 1343.37 699.27 1332.74 704.71 C 1320.29 710.80 1308.12 717.49 1295.54 723.30 C 1298.10 730.97 1302.45 738.11 1308.10 743.90 C 1315.03 751.08 1324.99 755.22 1334.97 755.07 C 1347.33 755.26 1358.77 748.66 1371.13 749.08 C 1378.84 750.80 1383.35 758.04 1388.04 763.76 C 1371.43 775.09 1352.15 782.81 1332.18 785.53 C 1314.59 787.44 1296.04 786.10 1279.97 778.08 C 1268.52 772.63 1258.93 763.83 1251.48 753.67 C 1251.45 753.62 1251.38 753.53 1251.35 753.48 C 1239.18 736.63 1234.24 715.51 1234.51 694.96 C 1234.28 673.18 1240.23 650.91 1253.57 633.44 C 1263.27 620.37 1277.08 610.14 1292.90 605.90 M 1301.41 637.21 C 1296.54 641.38 1293.45 647.20 1291.12 653.07 C 1286.61 665.05 1285.83 678.22 1287.65 690.81 C 1295.03 687.63 1302.10 683.79 1309.32 680.26 C 1318.19 675.75 1326.95 669.59 1331.36 660.38 C 1335.45 652.01 1334.14 640.25 1325.96 634.82 C 1318.47 629.81 1308.05 631.59 1301.41 637.21 Z" />
</g>
<g id="#4b78742c">
<path fill="#4b7874" stroke="#4b7874" stroke-width="0.09375" opacity="0.17" d=" M 158.78 594.24 C 161.58 595.28 164.27 596.71 166.34 598.92 C 163.74 597.49 161.25 595.87 158.78 594.24 Z" />
<path fill="#4b7874" stroke="#4b7874" stroke-width="0.09375" opacity="0.17" d=" M 344.06 631.32 C 345.39 628.64 347.02 626.13 348.70 623.67 C 347.63 626.47 346.20 629.17 344.06 631.32 Z" />
<path fill="#4b7874" stroke="#4b7874" stroke-width="0.09375" opacity="0.17" d=" M 333.10 649.38 C 334.50 646.75 336.06 644.21 337.72 641.74 C 336.63 644.52 335.24 647.23 333.10 649.38 Z" />
<path fill="#4b7874" stroke="#4b7874" stroke-width="0.09375" opacity="0.17" d=" M 325.31 662.23 C 326.63 659.59 328.26 657.12 329.94 654.70 C 328.85 657.46 327.43 660.12 325.31 662.23 Z" />
<path fill="#4b7874" stroke="#4b7874" stroke-width="0.09375" opacity="0.17" d=" M 255.22 668.27 C 256.39 665.58 257.64 662.80 259.83 660.78 C 258.48 663.38 256.89 665.85 255.22 668.27 Z" />
<path fill="#4b7874" stroke="#4b7874" stroke-width="0.09375" opacity="0.17" d=" M 249.19 678.20 C 250.38 675.49 251.51 672.62 253.80 670.62 C 252.43 673.25 250.80 675.72 249.19 678.20 Z" />
<path fill="#4b7874" stroke="#4b7874" stroke-width="0.09375" opacity="0.17" d=" M 244.23 686.24 C 245.19 683.45 246.79 680.94 248.83 678.81 C 247.45 681.38 245.89 683.85 244.23 686.24 Z" />
<path fill="#4b7874" stroke="#4b7874" stroke-width="0.09375" opacity="0.17" d=" M 225.26 717.29 C 226.33 714.48 227.74 711.73 229.94 709.62 C 228.56 712.28 226.94 714.81 225.26 717.29 Z" />
<path fill="#4b7874" stroke="#4b7874" stroke-width="0.09375" opacity="0.17" d=" M 290.08 720.40 C 291.47 717.73 293.06 715.18 294.75 712.70 C 293.66 715.51 292.25 718.26 290.08 720.40 Z" />
<path fill="#4b7874" stroke="#4b7874" stroke-width="0.09375" opacity="0.17" d=" M 992.34 726.93 C 992.53 727.40 992.93 728.35 993.13 728.82 L 992.27 728.68 L 991.85 727.72 L 992.34 726.93 Z" />
<path fill="#4b7874" stroke="#4b7874" stroke-width="0.09375" opacity="0.17" d=" M 208.16 745.21 C 209.25 742.50 210.57 739.82 212.71 737.78 C 211.40 740.37 209.83 742.82 208.16 745.21 Z" />
<path fill="#4b7874" stroke="#4b7874" stroke-width="0.09375" opacity="0.17" d=" M 32.19 748.82 C 33.90 751.12 35.59 753.45 37.17 755.85 C 34.94 753.96 33.26 751.53 32.19 748.82 Z" />
<path fill="#4b7874" stroke="#4b7874" stroke-width="0.09375" opacity="0.17" d=" M 1023.37 752.48 C 1023.41 752.45 1023.49 752.38 1023.54 752.35 C 1023.49 752.38 1023.41 752.45 1023.37 752.48 Z" />
<path fill="#4b7874" stroke="#4b7874" stroke-width="0.09375" opacity="0.17" d=" M 1251.35 753.48 C 1251.38 753.53 1251.45 753.62 1251.48 753.67 C 1251.45 753.62 1251.38 753.53 1251.35 753.48 Z" />
<path fill="#4b7874" stroke="#4b7874" stroke-width="0.09375" opacity="0.17" d=" M 952.30 757.42 C 952.34 757.47 952.40 757.56 952.44 757.61 C 952.40 757.56 952.34 757.47 952.30 757.42 Z" />
<path fill="#4b7874" stroke="#4b7874" stroke-width="0.09375" opacity="0.17" d=" M 196.07 766.23 C 196.68 763.51 198.12 761.06 199.99 759.02 C 198.83 761.49 197.50 763.89 196.07 766.23 Z" />
<path fill="#4b7874" stroke="#4b7874" stroke-width="0.09375" opacity="0.17" d=" M 367.16 761.99 C 367.34 761.49 367.70 760.49 367.87 759.99 L 368.42 760.78 L 368.05 761.80 L 367.16 761.99 Z" />
<path fill="#4b7874" stroke="#4b7874" stroke-width="0.09375" opacity="0.17" d=" M 53.79 772.23 C 56.66 774.03 59.43 775.97 62.23 777.86 C 59.11 776.52 56.04 774.82 53.79 772.23 Z" />
</g>
</svg>
