<?xml version="1.0" encoding="UTF-8" ?>
<!DOCTYPE svg PUBLIC "-//W3C//DTD SVG 1.1//EN" "http://www.w3.org/Graphics/SVG/1.1/DTD/svg11.dtd">
<svg width="907pt" height="563pt" viewBox="0 0 907 563" version="1.1" xmlns="http://www.w3.org/2000/svg">
<g id="#fdb813ff">
<path fill="#fdb813" stroke="#fdb813" stroke-width="0.09375" opacity="1.00" d=" M 509.94 51.20 C 546.91 46.30 585.76 52.80 618.06 71.84 C 627.82 77.49 636.96 84.19 645.42 91.65 C 654.77 100.15 662.23 110.42 669.93 120.37 C 708.26 113.12 749.19 124.12 779.58 148.36 C 793.11 158.53 803.39 172.29 812.21 186.58 C 814.25 190.01 816.46 193.38 818.01 197.09 C 809.53 184.80 799.18 173.84 787.74 164.27 C 773.87 152.79 757.78 143.52 740.12 139.45 C 721.65 135.09 701.73 137.21 684.58 145.31 C 678.60 147.81 672.01 149.12 665.54 148.25 C 660.19 147.43 655.27 144.36 652.20 139.91 C 635.24 111.45 609.38 87.17 577.57 76.55 C 528.83 59.83 471.18 75.68 436.99 114.00 C 420.85 132.32 409.96 155.51 407.61 179.91 C 406.27 194.49 407.56 209.29 411.44 223.40 C 411.76 224.92 412.49 226.40 412.39 227.99 C 409.08 233.90 404.41 239.37 398.03 242.03 C 390.25 245.29 381.65 245.64 373.34 245.90 C 375.65 241.83 377.98 236.73 375.62 232.16 C 372.84 227.23 367.00 225.36 361.88 223.93 C 348.89 221.10 334.67 224.08 323.88 231.84 C 312.63 240.06 305.52 252.62 300.68 265.43 C 293.33 285.02 291.20 306.17 291.66 326.96 C 292.10 348.45 295.07 370.52 305.00 389.85 C 311.55 402.73 322.49 413.84 336.41 418.42 C 354.65 424.39 375.45 421.85 391.82 411.85 C 396.95 408.86 401.52 405.05 406.03 401.22 C 406.82 409.55 405.82 418.67 400.34 425.37 C 393.40 433.91 382.31 437.44 371.86 439.31 C 355.32 441.81 337.94 442.41 321.92 436.89 C 305.61 431.40 292.10 419.49 282.74 405.26 C 269.48 385.44 263.83 361.51 262.34 337.97 C 260.95 316.20 262.42 293.97 269.00 273.06 C 276.15 250.71 289.54 229.33 309.87 216.84 C 328.18 205.83 350.73 202.69 371.59 206.55 C 368.21 186.58 371.01 165.85 378.13 146.98 C 387.70 121.47 405.28 99.24 427.24 83.22 C 451.38 65.54 480.29 54.77 509.94 51.20 Z" />
</g>
<g id="#0089d0ff">
<path fill="#0089d0" stroke="#0089d0" stroke-width="0.09375" opacity="1.00" d=" M 767.59 333.27 C 769.72 327.73 770.63 319.13 777.90 318.22 C 787.08 317.70 796.32 318.15 805.53 317.99 C 803.52 323.44 801.92 329.15 801.90 335.00 C 801.90 361.32 801.90 387.64 801.90 413.96 C 801.92 416.23 802.09 418.69 803.49 420.60 C 805.11 422.54 807.75 422.87 810.09 423.29 C 807.92 428.83 807.01 437.35 799.85 438.46 C 790.66 439.41 781.36 438.67 772.13 438.89 C 773.88 433.09 775.66 427.17 775.61 421.05 C 775.59 395.03 775.59 369.01 775.61 342.99 C 775.50 340.40 775.65 337.34 773.62 335.40 C 772.00 333.86 769.66 333.71 767.59 333.27 Z" />
<path fill="#0089d0" stroke="#0089d0" stroke-width="0.09375" opacity="1.00" d=" M 641.86 330.55 C 647.82 329.08 653.59 326.88 659.01 323.97 C 659.00 332.90 658.99 341.83 659.01 350.76 C 665.49 350.85 672.37 351.16 678.16 347.71 C 676.87 352.83 675.79 358.28 672.60 362.61 C 669.25 366.51 663.64 366.01 659.00 365.99 C 658.99 381.67 659.02 397.36 658.98 413.04 C 659.13 416.90 659.12 421.87 662.72 424.26 C 666.23 426.37 669.59 422.86 673.04 422.39 C 676.34 423.83 678.18 427.20 680.17 430.03 C 673.44 435.22 665.75 439.94 657.07 440.57 C 650.69 441.04 643.58 439.84 639.04 434.96 C 634.39 429.89 633.29 422.68 633.00 416.06 C 632.99 399.37 633.01 382.68 633.00 365.98 C 628.43 365.53 623.97 366.65 619.88 368.60 C 621.06 363.40 621.65 357.52 625.54 353.51 C 627.77 351.12 631.15 350.70 634.25 350.67 C 634.31 346.10 634.27 341.50 634.88 336.97 C 635.24 333.44 638.69 331.27 641.86 330.55 Z" />
<path fill="#0089d0" stroke="#0089d0" stroke-width="0.09375" opacity="1.00" d=" M 436.52 328.63 C 446.37 327.51 456.33 328.38 466.22 328.09 C 464.11 333.51 462.39 339.21 462.42 345.08 C 462.38 354.22 462.41 363.37 462.41 372.51 C 470.77 372.51 479.14 372.51 487.51 372.51 C 487.52 366.67 487.49 360.84 487.53 355.00 C 487.52 352.30 487.48 349.41 486.12 347.00 C 484.59 344.64 481.62 344.14 479.11 343.50 C 480.41 339.51 481.61 335.40 483.92 331.85 C 486.08 328.59 490.42 328.49 493.92 328.17 C 502.35 328.00 510.79 328.15 519.23 328.10 C 517.02 333.82 515.50 339.85 515.50 346.01 C 515.50 367.69 515.51 389.37 515.49 411.05 C 515.56 413.79 515.65 416.62 516.60 419.23 C 517.79 422.07 521.08 422.90 523.83 423.43 C 521.75 428.96 520.71 437.48 513.49 438.32 C 503.68 439.52 493.75 438.60 483.88 438.93 C 485.88 433.85 487.47 428.51 487.52 423.01 C 487.50 411.01 487.52 399.00 487.51 387.00 C 479.14 387.00 470.77 387.00 462.41 387.00 C 462.41 395.33 462.38 403.66 462.42 411.99 C 462.53 414.90 462.45 418.19 464.37 420.59 C 465.98 422.51 468.58 422.89 470.88 423.44 C 468.76 428.94 467.69 437.49 460.46 438.32 C 450.60 439.49 440.62 438.65 430.72 438.89 C 432.80 433.49 434.57 427.84 434.52 421.99 C 434.50 399.34 434.51 376.69 434.52 354.05 C 434.43 351.65 434.30 349.09 433.03 346.99 C 431.56 344.64 428.63 344.13 426.15 343.52 C 428.24 338.00 429.27 329.44 436.52 328.63 Z" />
<path fill="#0089d0" stroke="#0089d0" stroke-width="0.09375" opacity="1.00" d=" M 91.85 346.86 C 101.26 338.35 114.69 334.69 127.16 336.66 C 139.89 339.48 151.06 346.89 161.16 354.84 C 157.47 362.34 158.86 371.33 154.58 378.60 C 151.84 383.72 146.94 387.19 141.97 389.95 C 131.32 395.54 120.45 400.71 109.78 406.29 C 112.92 414.03 118.56 421.71 127.12 423.70 C 135.84 426.22 144.21 421.38 152.82 420.83 C 157.80 421.36 160.87 426.01 163.62 429.70 C 150.46 438.18 134.86 443.78 119.02 442.51 C 107.04 442.02 95.22 436.71 87.37 427.57 C 77.21 416.40 73.55 400.71 74.47 385.93 C 74.90 371.34 80.88 356.68 91.85 346.86 M 110.76 358.83 C 105.17 367.02 103.89 377.57 105.32 387.21 C 113.37 382.88 122.81 380.02 128.70 372.61 C 132.65 367.88 133.39 359.88 128.45 355.56 C 123.18 350.86 114.44 353.27 110.76 358.83 Z" />
<path fill="#0089d0" stroke="#0089d0" stroke-width="0.09375" opacity="1.00" d=" M 170.30 344.35 C 172.06 341.11 175.38 338.71 179.14 338.64 C 188.76 338.34 198.41 338.52 208.03 338.99 C 222.70 339.52 237.39 338.83 252.05 338.13 C 247.71 349.66 240.94 360.02 234.62 370.52 C 223.94 388.11 213.31 405.72 202.61 423.30 C 213.38 423.25 224.16 423.36 234.93 423.25 C 241.33 423.19 247.55 421.40 253.39 418.87 C 251.80 425.36 250.31 432.58 245.05 437.20 C 240.94 440.77 235.11 440.33 230.02 440.56 C 206.89 440.44 183.71 438.11 160.61 440.59 C 164.24 430.32 170.41 421.26 175.99 412.00 C 187.55 393.15 199.04 374.26 210.65 355.43 C 201.41 355.45 192.18 355.45 182.95 355.43 C 176.98 355.39 171.12 356.83 165.46 358.60 C 166.67 353.74 167.90 348.78 170.30 344.35 Z" />
<path fill="#0089d0" stroke="#0089d0" stroke-width="0.09375" opacity="1.00" d=" M 565.50 349.63 C 576.46 347.92 588.64 349.24 597.62 356.28 C 606.71 363.32 611.41 374.65 612.66 385.84 C 613.81 399.00 613.03 413.20 605.63 424.60 C 600.54 432.91 591.64 438.57 582.03 440.02 C 572.35 441.44 561.87 440.73 553.29 435.63 C 544.51 430.44 538.85 421.12 536.41 411.39 C 533.32 397.85 533.63 383.10 539.18 370.22 C 543.80 359.51 553.85 351.28 565.50 349.63 M 570.26 365.15 C 564.71 368.50 563.68 375.66 562.72 381.52 C 561.67 390.37 561.67 399.36 562.74 408.21 C 563.43 412.91 564.33 417.83 567.16 421.76 C 569.24 424.73 573.33 426.33 576.77 424.83 C 580.55 423.30 582.32 419.24 583.44 415.59 C 586.06 406.33 585.68 396.59 585.48 387.06 C 584.87 380.42 584.39 373.19 580.35 367.60 C 578.14 364.43 573.66 363.44 570.26 365.15 Z" />
<path fill="#0089d0" stroke="#0089d0" stroke-width="0.09375" opacity="1.00" d=" M 699.77 357.79 C 707.88 350.69 719.32 347.73 729.90 349.48 C 740.77 351.87 750.18 358.30 758.92 364.93 C 757.07 369.07 756.58 373.59 755.85 378.01 C 755.03 382.90 752.72 387.64 748.89 390.86 C 744.39 394.66 738.93 397.03 733.73 399.68 C 727.36 402.84 721.05 406.14 714.67 409.29 C 717.38 416.18 722.47 422.97 730.12 424.55 C 737.63 426.56 744.71 422.13 752.13 421.99 C 756.27 422.59 758.72 426.48 761.06 429.55 C 748.41 437.67 733.08 442.57 717.98 440.02 C 707.88 438.51 698.60 432.70 692.75 424.34 C 684.94 413.63 683.18 399.68 684.75 386.80 C 686.16 375.79 691.31 365.10 699.77 357.79 M 715.91 367.98 C 710.59 375.03 709.70 384.43 710.79 392.95 C 717.69 389.35 725.64 386.86 730.79 380.70 C 734.31 376.67 735.15 369.80 731.12 365.82 C 726.76 361.64 719.26 363.37 715.91 367.98 Z" />
</g>
</svg>
