<?xml version="1.0" encoding="UTF-8" ?>
<!DOCTYPE svg PUBLIC "-//W3C//DTD SVG 1.1//EN" "http://www.w3.org/Graphics/SVG/1.1/DTD/svg11.dtd">
<svg width="12pt" height="22pt" viewBox="0 0 12 22" version="1.1" xmlns="http://www.w3.org/2000/svg">
<g id="#ffffffff">
<path fill="#ffffff" stroke="#ffffff" stroke-width="0.09375" opacity="1.00" d=" M 8.11 0.00 L 8.21 0.00 C 8.89 0.04 10.26 0.13 10.94 0.17 C 10.94 1.03 10.93 2.75 10.92 3.61 C 9.69 3.62 8.47 3.63 7.24 3.64 C 7.07 5.05 6.89 6.46 6.70 7.87 C 8.09 7.89 9.49 7.90 10.88 7.92 C 10.88 9.17 10.89 10.42 10.89 11.67 C 9.54 11.69 8.19 11.71 6.84 11.73 C 6.85 15.16 6.86 18.58 6.83 22.00 L 2.80 22.00 C 2.79 18.58 2.79 15.16 2.82 11.74 C 2.12 11.72 0.71 11.67 0.00 11.65 L 0.00 8.26 C 0.70 8.12 2.09 7.84 2.78 7.70 C 2.07 4.07 3.86 -0.20 8.11 0.00 Z" />
</g>
</svg>
