<?xml version="1.0" encoding="UTF-8" ?>
<!DOCTYPE svg PUBLIC "-//W3C//DTD SVG 1.1//EN" "http://www.w3.org/Graphics/SVG/1.1/DTD/svg11.dtd">
<svg width="70pt" height="70pt" viewBox="0 0 70 70" version="1.1" xmlns="http://www.w3.org/2000/svg">
<g id="#fefefefe">
<path fill="#fefefe" stroke="#fefefe" stroke-width="0.09375" opacity="1.00" d=" M 29.51 11.78 C 41.61 8.30 55.32 16.29 58.22 28.53 C 60.24 36.40 58.08 45.44 52.07 51.06 C 47.01 56.48 39.11 58.81 31.86 57.68 C 21.28 56.26 12.52 46.70 12.10 36.02 C 11.11 25.12 18.92 14.38 29.51 11.78 M 34.04 12.07 C 26.42 12.44 18.91 16.83 15.55 23.80 C 10.92 32.74 12.72 44.81 20.41 51.50 C 28.67 58.78 42.28 58.80 50.56 51.53 C 59.68 43.66 60.44 28.36 52.50 19.41 C 47.97 14.20 40.85 11.63 34.04 12.07 Z" />
<path fill="#fefefe" stroke="#fefefe" stroke-width="0.09375" opacity="1.00" d=" M 33.93 22.88 C 35.94 20.58 39.28 21.05 42.00 21.20 C 41.98 22.67 41.95 24.15 41.88 25.63 C 40.40 25.85 38.54 25.13 37.35 26.30 C 36.95 27.89 37.18 29.55 37.12 31.17 C 38.75 31.18 40.39 31.20 42.03 31.23 C 41.96 32.76 41.90 34.29 41.85 35.83 C 40.29 35.85 38.73 35.87 37.17 35.89 C 37.16 40.25 37.18 44.60 37.18 48.96 C 35.55 48.95 33.92 48.94 32.29 48.91 C 32.36 44.57 32.34 40.23 32.34 35.89 C 31.51 35.87 29.85 35.85 29.01 35.84 C 29.01 34.30 29.01 32.76 29.01 31.22 C 29.85 31.21 31.52 31.19 32.35 31.18 C 32.44 28.40 31.71 25.05 33.93 22.88 Z" />
</g>
</svg>
