<?xml version="1.0" encoding="UTF-8" ?>
<!DOCTYPE svg PUBLIC "-//W3C//DTD SVG 1.1//EN" "http://www.w3.org/Graphics/SVG/1.1/DTD/svg11.dtd">
<svg width="70pt" height="70pt" viewBox="0 0 70 70" version="1.1" xmlns="http://www.w3.org/2000/svg">
<g id="#ffffffff">
<path fill="#ffffff" stroke="#ffffff" stroke-width="0.09375" opacity="1.00" d=" M 28.54 12.77 C 39.83 9.60 52.70 16.26 56.52 27.35 C 59.64 35.70 57.62 45.90 51.07 52.07 C 44.73 58.80 34.13 60.74 25.66 57.26 C 16.48 53.67 10.24 43.81 11.10 33.96 C 11.52 24.10 19.00 15.16 28.54 12.77 M 33.06 13.06 C 25.52 13.42 18.07 17.72 14.67 24.58 C 9.86 33.55 11.66 45.78 19.44 52.53 C 27.71 59.78 41.26 59.79 49.55 52.54 C 57.67 45.51 59.26 32.55 53.72 23.48 C 49.62 16.36 41.12 12.50 33.06 13.06 Z" />
<path fill="#ffffff" stroke="#ffffff" stroke-width="0.09375" opacity="1.00" d=" M 29.45 26.48 C 32.45 25.86 35.51 26.28 38.54 26.26 C 37.79 26.56 36.29 27.17 35.54 27.48 C 39.16 30.67 35.74 34.16 33.57 36.82 C 35.72 38.64 39.08 40.67 37.92 44.03 C 35.48 49.38 26.21 49.60 23.90 44.00 C 24.99 40.69 28.34 38.70 31.78 39.22 C 31.61 38.49 31.27 37.04 31.10 36.31 C 29.29 35.86 27.24 35.34 26.29 33.55 C 24.75 30.84 26.78 27.48 29.45 26.48 M 28.98 28.18 C 26.58 30.73 30.24 37.28 33.62 34.61 C 36.86 31.94 32.37 24.43 28.98 28.18 M 30.27 40.16 C 28.21 40.46 25.74 42.38 27.10 44.66 C 29.11 47.25 34.01 47.55 35.94 44.76 C 37.14 41.78 32.96 38.70 30.27 40.16 Z" />
<path fill="#ffffff" stroke="#ffffff" stroke-width="0.09375" opacity="1.00" d=" M 45.19 29.95 C 45.33 28.44 44.50 26.12 46.79 26.09 C 46.86 27.41 46.89 28.74 46.90 30.06 C 48.12 30.07 49.34 30.07 50.56 30.08 C 50.56 30.49 50.54 31.31 50.53 31.72 C 49.28 31.72 48.04 31.72 46.80 31.72 C 46.85 32.61 46.96 34.39 47.01 35.28 C 46.53 35.28 45.58 35.28 45.10 35.27 C 45.15 34.42 45.26 32.71 45.32 31.86 C 43.77 31.76 42.21 31.61 40.75 31.06 C 42.03 30.05 43.65 30.03 45.19 29.95 Z" />
</g>
</svg>
