<?xml version="1.0" encoding="UTF-8" ?>
<!DOCTYPE svg PUBLIC "-//W3C//DTD SVG 1.1//EN" "http://www.w3.org/Graphics/SVG/1.1/DTD/svg11.dtd">
<svg width="22pt" height="22pt" viewBox="0 0 22 22" version="1.1" xmlns="http://www.w3.org/2000/svg">
<g id="#fdfdfdfd">
<path fill="#fdfdfd" stroke="#fdfdfd" stroke-width="0.09375" opacity="1.00" d=" M 1.98 7.89 C 0.43 5.03 3.05 1.78 5.91 1.31 C 8.61 0.92 11.36 1.13 14.08 1.15 C 13.33 1.89 12.57 2.62 11.81 3.34 C 13.63 6.17 11.51 8.90 9.32 10.68 C 11.26 12.28 13.98 14.11 13.29 17.05 C 12.00 21.14 6.78 21.56 3.29 20.43 C 1.59 19.90 -0.64 17.99 0.41 16.08 C 1.33 13.31 4.40 12.73 6.85 12.11 C 5.95 9.90 2.78 10.18 1.98 7.89 M 7.43 9.56 C 10.91 7.89 9.19 3.29 6.01 2.42 C 3.55 4.68 4.79 8.11 7.43 9.56 M 4.45 14.69 C 2.95 15.57 2.88 17.51 4.43 18.42 C 6.21 19.54 8.61 19.31 10.32 18.15 C 12.25 14.79 6.79 12.40 4.45 14.69 Z" />
<path fill="#fdfdfd" stroke="#fdfdfd" stroke-width="0.09375" opacity="1.00" d=" M 17.06 5.57 C 17.56 5.56 18.56 5.54 19.06 5.52 C 19.06 6.43 19.07 8.26 19.07 9.17 C 19.80 9.17 21.27 9.17 22.00 9.18 L 22.00 11.06 C 21.26 11.07 19.79 11.07 19.05 11.08 C 19.06 12.30 19.06 13.52 19.07 14.74 C 18.57 14.74 17.58 14.72 17.08 14.71 C 17.10 13.60 17.11 12.49 17.13 11.37 C 15.39 11.03 13.64 10.64 12.03 9.88 C 13.72 9.51 15.43 9.22 17.14 8.94 C 17.12 8.10 17.08 6.42 17.06 5.57 Z" />
</g>
</svg>
