<svg xmlns:svg="http://www.w3.org/2000/svg" class="i" id="googleplus" viewBox="0 0 60 60">
	<polygon xmlns="http://www.w3.org/2000/svg" id="_x2B__2_" points="40.645,9.194 44.999,9.194 44.999,19.354 55.197,19.354 55.197,23.62 44.999,23.62    44.999,33.871 40.645,33.871 40.645,23.62 30.483,23.62 30.483,19.354 40.645,19.354  "/>
	<path xmlns="http://www.w3.org/2000/svg"  d="M23.08,44.075l-2.889-2.246c-0.879-0.726-2.082-1.689-2.082-3.458c0-1.771,1.202-2.9,2.243-3.942   c3.366-2.65,6.5-5.469,6.5-11.419c0-5.431-2.935-8.481-4.9-10.187c0.66,0,4.909,0,4.909,0l4.499-3.628H14.426   c-4.202,0.077-9.213,0.708-13.78,4.489C0.432,13.868,0.2,14.082,0,14.274v19.597c2.196,1.826,5.181,3.211,8.817,3.211   c0.803,0,1.682-0.082,2.564-0.161c-0.399,0.966-0.8,1.771-0.8,3.139c0,2.49,1.28,4.016,2.403,5.466   C9.921,45.732,3.628,45.213,0,48.115v4.627c1.653-2.248,4.294-3.253,5.452-3.677c3.365-1.126,7.693-1.288,8.417-1.288   c0.798,0,1.199,0,1.837,0.084c6.093,4.345,10.458,6.58,10.503,10.688c0.009,0.797-0.216,1.043-0.335,1.451h4.69   c0.483-1.128,0.646-2.464,0.646-3.951C31.209,50.499,26.603,47.053,23.08,44.075z M12.854,33.871c-6.891,0-9.72-7.967-9.72-13.353   c0-2.095,0.21-4.264,1.572-5.952c1.285-1.609,3.525-2.654,5.611-2.654c6.647,0,10.005,9.006,10.005,14.798   c0,1.159-0.59,3.426-2.093,5.149C16.91,33.361,14.857,33.871,12.854,33.871z"/>
</svg>