<svg xmlns="http://www.w3.org/2000/svg" viewBox="0 0 586 586"><defs><style>.cls-1{font-size:110px;font-family:Roboto-Medium, Roboto;}.cls-1,.cls-3{fill:white;}.cls-2{letter-spacing:-0.01em;}</style></defs><title>Asset 4</title><g id="Layer_2" data-name="Layer 2"><g id="Layer_1-2" data-name="Layer 1"><text class="cls-1" transform="translate(124.6 384.08)">H<tspan class="cls-2" x="77.5" y="0">O</tspan><tspan x="151.36" y="0">TEL</tspan></text><path class="cls-3" d="M293,0C131.18,0,0,131.18,0,293S131.18,586,293,586,586,454.82,586,293,454.82,0,293,0Zm45.75,133.75,74,74h-24l-62-62ZM293.09,74.09a33.5,33.5,0,1,1-33.5,33.5A33.5,33.5,0,0,1,293.09,74.09Zm-43.84,59.66,12,12-62,62h-24ZM487.08,462.08h-388V223.59h388Z"/></g></g></svg>