<?xml version="1.0" encoding="utf-8"?>
<!-- Generator: Adobe Illustrator 16.0.0, SVG Export Plug-In . SVG Version: 6.00 Build 0)  -->
<!DOCTYPE svg PUBLIC "-//W3C//DTD SVG 1.1//EN" "http://www.w3.org/Graphics/SVG/1.1/DTD/svg11.dtd">
<svg version="1.1" id="Layer_1" xmlns="http://www.w3.org/2000/svg" xmlns:xlink="http://www.w3.org/1999/xlink" x="0px" y="0px"
	 width="24px" height="24px" viewBox="0 0 24 24" enable-background="new 0 0 24 24" xml:space="preserve">
<path fill-rule="evenodd" clip-rule="evenodd" fill="#1E99CE" d="M6.646,17.911c0-1.434-0.004-2.866,0.004-4.298
	c0.001-0.218-0.047-0.371-0.269-0.438c-0.309-0.094-0.459-0.289-0.402-0.624c0.033-0.192-0.11-0.303-0.24-0.38
	c-0.348-0.208-0.403-0.509-0.399-0.889C5.36,9.62,5.354,7.958,5.345,6.294c-0.001-0.218,0.053-0.37,0.261-0.452
	c0.226-0.089,0.351-0.266,0.415-0.489c0.053-0.183,0.167-0.239,0.354-0.24c1.941-0.012,3.882-0.011,5.821-0.057
	c1.479-0.035,2.958-0.023,4.438-0.046c0.268-0.003,0.495,0.091,0.733,0.178c0.08,0.029,0.143,0.087,0.15,0.171
	c0.027,0.269,0.202,0.425,0.416,0.545c0.175,0.099,0.217,0.239,0.227,0.433c0.045,1.034,0.013,2.068,0.054,3.101
	c0.031,0.795,0.022,1.59,0.039,2.385c0.002,0.121,0.013,0.252-0.113,0.319c-0.396,0.209-0.517,0.583-0.585,0.981
	c-0.035,0.198-0.132,0.278-0.323,0.255c-0.206-0.024-0.28,0.065-0.276,0.272c0.039,1.987,0.063,3.977,0.115,5.962
	c0.013,0.502,0.007,1.003,0.037,1.503c0.027,0.472-0.084,0.913-0.212,1.357c-0.043,0.143-0.111,0.249-0.262,0.278
	c-0.197,0.043-0.275,0.181-0.34,0.356c-0.191,0.517-0.113,0.433-0.638,0.444c-2.505,0.052-5.01,0.041-7.516,0.054
	c-0.252,0-0.413-0.062-0.478-0.313c-0.008-0.029-0.032-0.056-0.039-0.087c-0.081-0.321-0.292-0.472-0.614-0.54
	c-0.368-0.076-0.364-0.099-0.364-0.483C6.646,20.758,6.646,19.334,6.646,17.911z M7.466,12.051c0.372,0.176,0.424,0.484,0.426,0.83
	c0.003,0.541,0.001,1.083-0.001,1.623c-0.015,2.266-0.028,4.532-0.051,6.798c-0.003,0.235,0.068,0.375,0.286,0.453
	c0.181,0.066,0.342,0.173,0.465,0.325c0.11,0.135,0.249,0.173,0.42,0.171c0.931-0.006,1.861-0.002,2.792-0.002
	c0.907,0,1.814-0.012,2.719,0.005c0.346,0.006,0.632-0.132,0.877-0.321c0.193-0.148,0.364-0.365,0.362-0.645
	c-0.008-0.835,0.07-1.667,0.052-2.503c-0.019-0.795-0.017-1.59-0.037-2.385c-0.029-1.151-0.006-2.307-0.019-3.46
	c-0.002-0.229,0.06-0.397,0.249-0.525c0.214-0.144,0.36-0.333,0.381-0.603c0.007-0.111,0.066-0.196,0.171-0.242
	c0.282-0.126,0.349-0.354,0.349-0.643c-0.009-1.281-0.003-2.561-0.003-3.841c0-0.427-0.189-0.62-0.621-0.622
	c-2.966-0.009-5.932,0-8.898-0.048C6.966,6.41,6.599,6.776,6.609,7.194c0.029,1.207,0.113,2.414,0.083,3.623
	c-0.005,0.231,0.229,0.571,0.229,0.571"/>
<path fill-rule="evenodd" clip-rule="evenodd" fill="#1E99CE" d="M15.914,2.901c0,0.27-0.006,0.541,0.002,0.811
	c0.005,0.223-0.113,0.358-0.313,0.384C15.42,4.12,15.241,4.058,15.16,3.853c-0.055-0.137-0.078-0.276-0.055-0.421
	c0.071-0.412,0.043-0.826,0.034-1.238c-0.01-0.371-0.44-0.802-0.812-0.795c-0.662,0.013-1.319-0.068-1.979-0.058
	c-0.68,0.01-1.124,0.45-1.11,1.14c0.008,0.365,0.057,0.729,0.047,1.095c-0.013,0.463-0.097,0.554-0.555,0.585
	c-0.143,0.009-0.284,0.012-0.426-0.025c-0.304-0.08-0.441-0.287-0.387-0.603c0.099-0.574,0.175-1.148,0.069-1.73
	C9.916,1.412,9.551,1.243,9.215,1.434c-0.119,0.068-0.13,0.172-0.15,0.279C9.036,1.866,8.987,1.99,8.795,1.979
	C8.7,1.973,8.655,2.038,8.626,2.119C8.582,2.248,8.557,2.378,8.558,2.516c0.003,0.397,0.004,0.795,0,1.192
	c-0.004,0.32-0.127,0.498-0.343,0.51C7.793,4.243,7.642,4.125,7.592,3.744C7.522,3.197,7.539,2.648,7.554,2.1
	c0.007-0.269,0.089-0.523,0.422-0.576c0.139-0.022,0.156-0.152,0.182-0.256c0.084-0.34,0.281-0.576,0.602-0.721
	C8.905,0.48,9.053,0.471,9.202,0.488c0.293,0.031,0.586,0.003,0.878,0.009c1.622,0.027,3.243,0.04,4.866,0.032
	c0.154-0.001,0.233,0.07,0.278,0.205c0.063,0.189,0.179,0.326,0.368,0.413c0.167,0.078,0.254,0.228,0.269,0.42
	C15.892,2.011,15.923,2.456,15.914,2.901z"/>
<path fill-rule="evenodd" clip-rule="evenodd" fill="#1E99CE" d="M13.232,3.185c0-0.832,0.066-0.898,0.855-0.895
	c0.387,0.003,0.517,0.119,0.585,0.509c0.056,0.308,0.049,0.618,0.03,0.927c-0.017,0.297-0.115,0.398-0.409,0.427
	c-0.269,0.025-0.538,0.048-0.806-0.024c-0.117-0.033-0.2-0.088-0.204-0.226C13.274,3.649,13.203,3.4,13.232,3.185z"/>
<path fill-rule="evenodd" clip-rule="evenodd" fill="#1E99CE" d="M12.021,7.498c1.097-0.001,2.194-0.001,3.29,0
	c0.342,0,0.46,0.116,0.46,0.456c-0.002,0.795-0.005,1.59-0.011,2.384c-0.002,0.167-0.012,0.332-0.125,0.474
	c-0.102,0.127-0.215,0.19-0.384,0.19c-2.146-0.005-4.293-0.002-6.439-0.004c-0.312,0-0.485-0.14-0.505-0.444
	c-0.059-0.887-0.095-1.777-0.09-2.667c0.001-0.249,0.166-0.388,0.441-0.388C9.778,7.496,10.899,7.498,12.021,7.498z"/>
<path fill-rule="evenodd" clip-rule="evenodd" fill="#1E99CE" d="M14.11,19.479c0.184,0,0.366,0.004,0.548,0
	c0.136-0.002,0.208,0.05,0.204,0.195c-0.007,0.34,0.006,0.682-0.046,1.02c-0.017,0.124-0.069,0.188-0.195,0.184
	c-0.381-0.009-0.762,0.01-1.141-0.044c-0.154-0.022-0.204-0.094-0.196-0.234c0.017-0.315,0.033-0.632,0.05-0.949
	c0.008-0.134,0.086-0.173,0.206-0.171C13.731,19.48,13.921,19.479,14.11,19.479z"/>
<path fill-rule="evenodd" clip-rule="evenodd" fill="#1E99CE" d="M10.056,19.479c0.182,0.002,0.365,0.004,0.547,0
	c0.141-0.004,0.205,0.063,0.198,0.202c-0.016,0.309-0.033,0.617-0.05,0.926c-0.006,0.12-0.085,0.163-0.191,0.165
	c-0.365,0.002-0.729,0-1.094,0c-0.127-0.002-0.187-0.072-0.188-0.195c-0.001-0.301,0-0.604-0.001-0.904
	c0-0.14,0.071-0.197,0.209-0.193C9.675,19.482,9.866,19.479,10.056,19.479z"/>
<path fill-rule="evenodd" clip-rule="evenodd" fill="#1E99CE" d="M14.102,17.718c0.184,0,0.365,0.002,0.548-0.002
	c0.146-0.004,0.219,0.056,0.217,0.21c-0.006,0.294-0.006,0.587,0,0.879c0.002,0.155-0.074,0.21-0.221,0.208
	c-0.34-0.002-0.68-0.004-1.021,0.002c-0.146,0.002-0.225-0.063-0.232-0.206c-0.017-0.309-0.031-0.617-0.045-0.926
	c-0.005-0.124,0.074-0.165,0.185-0.165C13.723,17.718,13.912,17.718,14.102,17.718L14.102,17.718z"/>
<path fill-rule="evenodd" clip-rule="evenodd" fill="#1E99CE" d="M9.275,18.36c-0.013-0.518-0.013-0.513,0.515-0.555
	c0.254-0.022,0.506-0.038,0.761-0.038c0.14,0,0.207,0.062,0.2,0.201c-0.016,0.293-0.033,0.587-0.049,0.88
	c-0.007,0.123-0.082,0.166-0.191,0.16c-0.356-0.015-0.713-0.031-1.07-0.05c-0.121-0.006-0.163-0.088-0.165-0.193
	C9.273,18.63,9.275,18.494,9.275,18.36z"/>
<path fill-rule="evenodd" clip-rule="evenodd" fill="#1E99CE" d="M11.902,20.721c-0.683,0.002-0.688,0.002-0.682-0.67
	c0.006-0.578-0.104-0.494,0.541-0.56c0.212-0.021,0.429-0.005,0.642-0.011c0.134-0.004,0.212,0.045,0.212,0.189
	c-0.002,0.286-0.001,0.57-0.001,0.856c0.001,0.128-0.064,0.191-0.188,0.193C12.251,20.723,12.077,20.721,11.902,20.721z"/>
<path fill-rule="evenodd" clip-rule="evenodd" fill="#1E99CE" d="M11.782,19.013c-0.666-0.01-0.56,0.097-0.56-0.628
	c0-0.706-0.104-0.611,0.614-0.618c0.159-0.002,0.318,0.003,0.476,0c0.139-0.002,0.205,0.061,0.204,0.2
	c-0.002,0.276-0.002,0.554,0.001,0.832c0,0.148-0.062,0.219-0.214,0.214C12.152,19.009,12.001,19.013,11.782,19.013z"/>
<path fill-rule="evenodd" clip-rule="evenodd" fill="#1E99CE" d="M14.103,17.25c-0.007,0-0.015,0.002-0.021,0
	c-0.212-0.033-0.537,0.115-0.619-0.082c-0.122-0.295-0.06-0.651,0.012-0.98c0.015-0.074,0.078-0.097,0.146-0.097
	c0.323-0.002,0.648-0.002,0.974-0.002c0.105,0.002,0.159,0.058,0.165,0.162c0.017,0.252,0.031,0.505,0.052,0.758
	c0.015,0.189-0.076,0.254-0.255,0.243C14.405,17.244,14.255,17.25,14.103,17.25z"/>
<path fill-rule="evenodd" clip-rule="evenodd" fill="#1E99CE" d="M9.958,17.2c-0.159,0-0.318-0.002-0.477,0.001
	c-0.139,0.002-0.207-0.059-0.208-0.198c-0.001-0.23-0.004-0.463-0.006-0.691c-0.001-0.104,0.044-0.159,0.151-0.176
	c0.372-0.058,0.746-0.041,1.119-0.045c0.109,0,0.165,0.062,0.16,0.165c-0.012,0.27-0.03,0.539-0.05,0.809
	c-0.008,0.111-0.093,0.136-0.189,0.136C10.292,17.2,10.125,17.2,9.958,17.2z"/>
<path fill-rule="evenodd" clip-rule="evenodd" fill="#1E99CE" d="M11.929,16.138c0.087,0,0.174,0,0.262,0
	c0.445,0,0.468,0.003,0.415,0.455c-0.085,0.69,0.098,0.604-0.639,0.6c-0.111,0-0.221-0.019-0.331-0.03
	c-0.416-0.042-0.418-0.042-0.415-0.475c0.004-0.617-0.074-0.545,0.542-0.55C11.817,16.138,11.873,16.138,11.929,16.138z"/>
<path fill-rule="evenodd" clip-rule="evenodd" fill="#1E99CE" d="M14.065,15.569c-0.174,0-0.349,0-0.523,0
	c-0.138,0.002-0.206-0.065-0.206-0.203c-0.002-0.109-0.004-0.221-0.004-0.332c0-0.442,0-0.445,0.435-0.414
	c0.284,0.021,0.566,0.052,0.853,0.076c0.136,0.011,0.193,0.08,0.193,0.217c-0.006,0.778,0.085,0.645-0.604,0.658
	c-0.049,0.002-0.095,0-0.144,0C14.065,15.571,14.065,15.571,14.065,15.569z"/>
<path fill-rule="evenodd" clip-rule="evenodd" fill="#1E99CE" d="M9.999,15.571c-0.064,0-0.128,0.007-0.191,0
	c-0.143-0.018-0.348,0.074-0.415-0.082c-0.083-0.193-0.042-0.422,0.017-0.63c0.027-0.097,0.115-0.1,0.195-0.1
	c0.278-0.002,0.556,0.001,0.834,0c0.135-0.002,0.209,0.057,0.212,0.196c0,0.008,0.001,0.015,0.001,0.024
	C10.659,15.701,10.695,15.558,9.999,15.571z"/>
<path fill-rule="evenodd" clip-rule="evenodd" fill="#1E99CE" d="M11.914,15.521c-0.016,0-0.032,0-0.048,0
	c-0.569,0-0.634-0.08-0.544-0.651c0.017-0.104,0.064-0.158,0.168-0.158c0.27,0,0.54,0,0.81,0.002c0.079,0,0.144,0.037,0.153,0.121
	c0.022,0.18,0.043,0.361,0.049,0.544c0.004,0.113-0.09,0.138-0.184,0.141c-0.135,0.002-0.27,0-0.405,0V15.521z"/>
</svg>
