<?xml version="1.0" encoding="UTF-8" ?>
<!DOCTYPE svg PUBLIC "-//W3C//DTD SVG 1.1//EN" "http://www.w3.org/Graphics/SVG/1.1/DTD/svg11.dtd">
<svg width="70pt" height="70pt" viewBox="0 0 70 70" version="1.1" xmlns="http://www.w3.org/2000/svg">
<g id="#ffffffff">
<path fill="#ffffff" stroke="#ffffff" stroke-width="0.09375" opacity="1.00" d=" M 28.55 11.77 C 33.45 10.59 38.77 10.82 43.44 12.79 C 51.20 15.91 57.04 23.51 57.80 31.88 C 58.62 38.85 56.19 46.23 51.06 51.08 C 45.95 56.47 38.08 58.84 30.80 57.66 C 19.89 56.19 11.00 46.02 11.06 34.99 C 10.57 24.40 18.31 14.31 28.55 11.77 M 33.01 12.06 C 25.65 12.44 18.38 16.55 14.90 23.15 C 9.82 32.15 11.53 44.62 19.40 51.49 C 27.68 58.78 41.25 58.80 49.55 51.54 C 57.66 44.51 59.26 31.56 53.72 22.49 C 49.62 15.35 41.10 11.48 33.01 12.06 Z" />
<path fill="#ffffff" stroke="#ffffff" stroke-width="0.09375" opacity="1.00" d=" M 28.56 22.23 C 33.06 21.97 37.58 22.10 42.10 22.08 C 44.24 21.92 46.48 22.90 47.49 24.86 C 48.13 26.70 47.89 28.70 48.05 30.61 C 44.36 30.47 40.30 31.55 37.11 29.18 C 34.68 27.71 32.21 29.74 30.00 30.63 C 27.31 30.75 24.62 30.63 21.93 30.61 C 22.03 27.80 21.79 24.59 24.39 22.75 C 24.43 24.65 24.40 26.56 24.32 28.46 C 25.88 28.38 27.44 28.38 29.01 28.47 C 28.66 26.40 28.63 24.31 28.56 22.23 M 41.38 24.41 C 41.35 25.85 41.33 27.28 41.30 28.72 C 42.72 28.73 44.14 28.73 45.55 28.74 C 45.54 27.29 45.53 25.85 45.52 24.40 C 44.14 24.36 42.76 24.37 41.38 24.41 Z" />
<path fill="#ffffff" stroke="#ffffff" stroke-width="0.09375" opacity="1.00" d=" M 30.27 37.77 C 28.62 34.59 31.49 30.31 35.01 30.40 C 37.53 30.33 39.69 32.53 40.19 34.90 C 40.64 37.16 38.86 38.98 37.82 40.75 C 38.77 40.75 40.00 40.94 40.41 39.82 C 42.36 37.47 41.52 34.32 41.09 31.60 C 43.34 31.66 45.59 31.66 47.84 31.64 C 47.95 35.80 47.96 39.97 47.90 44.13 C 48.06 46.69 45.66 49.18 43.07 48.91 C 37.68 48.93 32.29 48.94 26.90 48.90 C 24.28 49.12 22.01 46.62 22.10 44.08 C 22.03 39.94 22.08 35.79 22.13 31.66 C 24.55 31.65 26.96 31.67 29.38 31.58 C 27.99 34.46 27.68 38.37 30.41 40.59 C 32.15 42.87 35.29 43.00 37.74 41.87 C 37.73 41.49 37.70 40.73 37.69 40.36 C 34.99 41.80 31.33 40.67 30.27 37.77 M 32.88 32.52 C 28.95 35.02 32.91 41.71 36.90 39.07 C 41.33 36.73 37.00 29.38 32.88 32.52 Z" />
</g>
</svg>
