<?xml version="1.0" encoding="UTF-8" ?>
<!DOCTYPE svg PUBLIC "-//W3C//DTD SVG 1.1//EN" "http://www.w3.org/Graphics/SVG/1.1/DTD/svg11.dtd">
<svg  version="1.1" viewBox="0 0 123 80" xmlns="http://www.w3.org/2000/svg">
<g id="#fdb813ff">
<path fill="#fdb813" opacity="1.00" d=" M 74.26 0.00 L 78.35 0.00 C 86.35 0.74 93.83 4.96 98.45 11.56 C 103.64 11.05 109.08 11.65 113.64 14.33 C 117.34 16.24 119.83 19.67 123.00 22.26 L 123.00 23.96 C 118.86 20.18 114.92 15.37 108.96 14.66 C 104.85 13.65 101.06 16.66 97.05 16.21 C 93.94 13.24 91.91 9.17 88.13 6.89 C 78.22 -0.10 62.93 3.78 57.32 14.45 C 54.48 19.23 54.74 25.04 55.94 30.28 C 54.17 31.34 52.29 32.18 50.36 32.92 C 50.51 27.26 42.89 27.94 40.20 31.12 C 35.74 36.26 35.42 43.70 36.23 50.15 C 36.81 54.82 39.10 60.26 44.15 61.43 C 48.30 62.64 52.11 60.29 55.61 58.41 C 54.71 60.41 54.14 63.04 51.81 63.86 C 48.55 65.16 44.83 65.16 41.45 64.40 C 35.64 62.68 32.34 56.70 31.45 51.05 C 30.38 43.69 31.05 35.20 36.55 29.63 C 39.70 26.25 44.53 25.61 48.92 25.72 C 48.75 21.25 49.44 16.64 51.84 12.78 C 56.39 4.90 65.39 0.57 74.26 0.00 Z" />
</g>
<g id="#0083cbff">
<path fill="#ffffff" opacity="1.00" d=" M 0.00 55.17 C 0.55 52.17 2.08 48.97 5.19 47.96 C 8.62 46.52 11.85 48.95 14.59 50.72 C 14.02 55.73 9.23 57.47 5.36 59.46 C 7.82 62.82 12.12 61.92 15.73 62.29 C 17.81 58.27 20.27 54.46 22.70 50.64 C 19.96 50.67 17.22 50.71 14.49 50.62 C 15.31 49.77 16.10 48.86 17.03 48.12 C 21.17 47.65 25.36 48.08 29.52 47.89 C 26.86 52.73 23.90 57.40 21.06 62.13 C 24.13 62.00 27.20 61.84 30.27 61.70 C 28.98 62.83 28.09 65.01 26.03 64.72 C 21.57 64.81 17.08 64.81 12.65 64.20 C 10.04 64.91 7.14 65.77 4.57 64.46 C 1.90 63.33 0.61 60.54 0.00 57.88 L 0.00 55.17 M 4.73 56.28 C 6.55 55.15 9.30 54.47 9.71 52.02 C 9.27 50.81 8.47 49.81 7.06 50.38 C 4.89 51.45 5.19 54.28 4.73 56.28 Z" />
<path fill="#ffffff" opacity="1.00" d=" M 56.78 48.69 C 58.74 48.26 60.73 47.97 62.71 47.70 C 62.45 52.56 62.20 57.47 62.67 62.33 C 64.61 62.99 66.68 62.43 68.68 62.46 C 66.53 66.61 61.39 64.19 57.73 64.82 C 58.13 59.49 59.13 53.72 56.78 48.69 Z" />
<path fill="#ffffff" opacity="1.00" d=" M 71.37 48.48 C 74.82 46.53 79.65 48.29 80.90 52.09 C 82.95 56.93 81.28 64.84 75.04 65.22 C 66.53 65.67 64.83 52.23 71.37 48.48 M 73.36 50.39 C 71.91 52.27 72.19 54.84 72.10 57.07 C 72.22 59.33 72.08 62.74 74.93 63.34 C 77.86 60.77 77.20 56.33 76.83 52.88 C 76.69 51.27 75.10 48.53 73.36 50.39 Z" />
<path fill="#ffffff" opacity="1.00" d=" M 81.97 49.12 C 83.80 47.60 86.34 48.11 88.53 47.78 C 87.62 52.25 86.50 57.27 88.44 61.61 C 89.64 63.84 93.10 62.85 93.32 60.44 C 93.73 56.77 95.07 51.74 91.28 49.35 C 92.62 48.36 94.23 47.97 95.84 47.64 C 95.57 52.23 96.47 56.93 95.34 61.44 C 94.07 66.16 86.88 66.46 84.51 62.54 C 82.51 59.35 83.39 55.38 83.30 51.83 C 82.82 50.94 82.38 50.04 81.97 49.12 Z" />
<path fill="#ffffff" opacity="1.00" d=" M 97.15 49.37 C 101.54 45.99 110.89 47.45 111.38 54.03 C 111.77 57.39 111.69 61.62 108.66 63.80 C 105.61 65.90 101.70 64.77 98.27 64.79 C 98.20 59.70 99.84 53.97 97.15 49.37 M 103.20 50.22 C 102.60 54.08 102.71 58.05 103.02 61.94 C 102.98 63.93 105.64 63.29 106.04 61.94 C 107.26 59.08 106.96 55.81 106.68 52.78 C 106.52 51.06 105.10 48.70 103.20 50.22 Z" />
</g>
</svg>
