<?xml version="1.0" ?><!DOCTYPE svg  PUBLIC '-//W3C//DTD SVG 1.1//EN'  'http://www.w3.org/Graphics/SVG/1.1/DTD/svg11.dtd'><svg enable-background="new 0 0 500 500" height="500px" id="Capa_1" version="1.1" viewBox="0 0 500 500" width="500px" xml:space="preserve" xmlns="http://www.w3.org/2000/svg" xmlns:xlink="http://www.w3.org/1999/xlink"><path d="M412.226,87.133L88.29,412.367c41.458,40.974,98.435,66.279,161.33,66.279  c126.765,0,229.527-102.764,229.527-229.527C479.146,185.895,453.58,128.644,412.226,87.133z" fill="#9448F7"/><path d="M249.619,19.592c-126.765,0-229.527,102.762-229.527,229.527c0,63.87,26.096,121.639,68.197,163.248  L412.226,87.133C370.665,45.414,313.159,19.592,249.619,19.592z" fill="#763ECE"/><circle cx="249.062" cy="248.562" fill="none" r="243.438" stroke="#9448F7" stroke-miterlimit="10" stroke-width="5"/><g><path clip-rule="evenodd" d="M214.872,194.947c-4.431,5.903-8.058,12.703-13.453,17.526   c-12.421,11.106-14.083,15.145-7.522,30.223c13.475,30.963,34.462,54.369,66.906,66.404c10.815,4.013,18.736,2.343,25.884-7.384   c11.683-15.898,20.506-17.478,37.05-6.653c12.759,8.346,24.957,17.632,36.873,27.163c9.681,7.742,11.32,16.996,4.47,27.334   c-5.44,8.214-11.927,15.99-19.093,22.75c-10.034,9.469-21.686,11.827-35.402,6.593c-91.507-34.913-153.865-98.42-188.282-189.901   c-4.646-12.353-3.115-23.539,5.303-32.807c7.548-8.311,16.357-15.757,25.598-22.158c7.562-5.239,17.211-5.498,23.28,2.29   c11.972,15.362,22.831,31.602,33.854,47.682c1.691,2.466,1.805,6.014,2.647,9.06C213.614,193.695,214.244,194.321,214.872,194.947z   " fill="#FFFFFF" fill-rule="evenodd"/><path clip-rule="evenodd" d="M377.679,241.675c0,3.193,0.965,6.827-0.243,9.466   c-1.534,3.354-4.831,5.902-7.368,8.797c-2.508-2.898-6.591-5.487-7.231-8.753c-2.049-10.419-2.113-21.231-4.201-31.639   c-9.882-49.214-51.235-84.457-101.246-87.079c-6.604-0.346-16.601,1.95-16.476-8.462c0.132-10.881,10.166-7.587,16.581-7.375   c62.454,2.069,114.517,53.08,119.242,116.52c0.212,2.838,0.319,5.682,0.477,8.524C377.368,241.675,377.523,241.675,377.679,241.675   z" fill="#FFFFFF" fill-rule="evenodd"/><path clip-rule="evenodd" d="M344.9,229.092c0,4.405,0.733,6.936-0.154,8.594   c-1.8,3.352-4.479,6.231-6.797,9.306c-2.807-3.021-7.017-5.614-8.101-9.163c-1.73-5.654-0.778-12.07-2.009-17.944   c-6.312-30.132-28.948-50.002-61.962-54.831c-1.405-0.206-3.225,0.283-4.188-0.438c-3.517-2.637-9.337-5.452-9.573-8.559   c-0.54-7.118,5.862-7.803,11.508-7.142c18.328,2.149,35.53,7.513,50.021,19.417C333.457,184.608,343.564,205.845,344.9,229.092z" fill="#FFFFFF" fill-rule="evenodd"/><path clip-rule="evenodd" d="M312.818,229.353c-1.244,1.228-3.852,5.819-7.056,6.283   c-2.316,0.336-7.572-4.617-7.836-7.542c-1.645-18.28-10.332-28.601-29.175-30.408c-2.889-0.277-5.322-5.297-7.966-8.124   c3.413-2.289,6.761-6.443,10.25-6.566C293.733,182.199,313.31,202.812,312.818,229.353z" fill="#FFFFFF" fill-rule="evenodd"/></g></svg>