<?xml version="1.0" encoding="UTF-8" ?>
<!DOCTYPE svg PUBLIC "-//W3C//DTD SVG 1.1//EN" "http://www.w3.org/Graphics/SVG/1.1/DTD/svg11.dtd">
<svg width="40pt" height="40pt" viewBox="0 0 40 40" version="1.1" xmlns="http://www.w3.org/2000/svg">
<g id="#676767ff">
<path fill="#676767" stroke="#676767" stroke-width="0.09375" opacity="1.00" d=" M 10.72 9.70 C 14.26 6.42 19.96 6.41 23.62 9.52 C 27.92 12.91 28.24 19.78 24.82 23.89 C 28.89 24.62 30.92 29.13 34.06 31.53 C 33.20 32.37 32.34 33.22 31.48 34.06 C 29.12 30.89 24.62 28.88 23.89 24.82 C 19.76 28.25 12.85 27.92 9.48 23.57 C 6.03 19.53 6.62 13.05 10.72 9.70 M 14.36 11.38 C 12.43 12.56 10.60 14.55 10.87 16.99 C 10.16 21.60 16.01 25.50 19.98 23.13 C 22.88 21.76 24.97 17.82 23.23 14.83 C 22.07 11.23 17.61 9.91 14.36 11.38 Z" />
</g>
</svg>
