<?xml version="1.0" encoding="utf-8"?>
<!-- Generator: Adobe Illustrator 19.2.1, SVG Export Plug-In . SVG Version: 6.00 Build 0)  -->
<svg version="1.1" id="Layer_1" xmlns="http://www.w3.org/2000/svg" xmlns:xlink="http://www.w3.org/1999/xlink" x="0px" y="0px"
	 viewBox="0 0 40 40" style="enable-background:new 0 0 40 40;" xml:space="preserve">
<style type="text/css">
	.st0{fill:#FFFFFF;}
</style>
<path class="st0" d="M36.9,18.4c0,0-0.6-0.2-2.4-0.4c-2.2-0.2-2.9-1-3.6-2.1l0,0c-0.1-0.2-0.2-0.5-0.3-0.7l0,0
	c-0.2-1.2-0.3-2.3,1.1-4c1.2-1.4,1.4-2,1.4-2c-0.3-0.7-0.9-1.3-0.9-1.3S31.5,7.2,30.9,7c0,0-0.6,0.3-2,1.4c-1.7,1.4-2.8,1.3-4,1.1
	l0,0c-0.2-0.1-0.5-0.2-0.7-0.3l0,0c-1-0.7-1.9-1.4-2.1-3.6c-0.2-1.8-0.4-2.4-0.4-2.4C20.9,2.8,20,2.8,20,2.8s-0.9,0-1.6,0.3
	c0,0-0.2,0.6-0.4,2.4c-0.2,2.2-1,2.9-2.1,3.6l0,0c-0.2,0.1-0.5,0.2-0.7,0.3l0,0c-1.2,0.2-2.3,0.3-4-1.1c-1.4-1.2-2-1.4-2-1.4
	c-0.7,0.3-1.3,1-1.3,1s-0.7,0.6-1,1.3c0,0,0.3,0.6,1.4,2c1.4,1.7,1.3,2.8,1.1,4l0,0c-0.1,0.2-0.2,0.5-0.3,0.7l0,0
	c-0.7,1-1.4,1.9-3.6,2.1c-1.8,0.2-2.4,0.4-2.4,0.4C2.8,19.1,2.8,20,2.8,20s0,0.9,0.3,1.6c0,0,0.6,0.2,2.4,0.4c2.2,0.2,2.9,1,3.6,2.1
	l0,0c0.1,0.2,0.2,0.5,0.3,0.7l0,0c0.2,1.2,0.3,2.3-1.1,4c-1.2,1.4-1.4,2-1.4,2c0.3,0.7,0.9,1.3,0.9,1.3s0.7,0.7,1.3,0.9
	c0,0,0.6-0.3,2-1.4c1.7-1.4,2.8-1.3,4-1.1l0,0c0.2,0.1,0.5,0.2,0.7,0.3l0,0c1,0.7,1.9,1.4,2.1,3.6c0.2,1.8,0.4,2.4,0.4,2.4
	c0.7,0.3,1.6,0.3,1.6,0.3s0.9,0,1.6-0.3c0,0,0.2-0.6,0.4-2.4c0.2-2.2,1-2.9,2.1-3.6l0,0c0.2-0.1,0.5-0.2,0.7-0.3l0,0
	c1.2-0.2,2.3-0.3,4,1.1c1.4,1.2,2,1.4,2,1.4c0.7-0.3,1.3-0.9,1.3-0.9s0.7-0.7,0.9-1.3c0,0-0.3-0.6-1.4-2c-1.4-1.7-1.3-2.8-1.1-4l0,0
	c0.1-0.2,0.2-0.5,0.3-0.7l0,0c0.7-1,1.4-1.9,3.6-2.1c1.8-0.2,2.4-0.4,2.4-0.4C37,20.9,37,20,37,20S37.2,19.1,36.9,18.4z M20,28
	c-4.4,0-8-3.6-8-8s3.6-8,8-8s8,3.6,8,8S24.4,28,20,28z"/>
</svg>
