<?xml version="1.0" encoding="UTF-8" ?>
<!DOCTYPE svg PUBLIC "-//W3C//DTD SVG 1.1//EN" "http://www.w3.org/Graphics/SVG/1.1/DTD/svg11.dtd">
<svg width="70pt" height="70pt" viewBox="0 0 70 70" version="1.1" xmlns="http://www.w3.org/2000/svg">
<g id="#ffffffff">
<path fill="#ffffff" stroke="#ffffff" stroke-width="0.09375" opacity="1.00" d=" M 29.63 12.75 C 34.29 11.65 39.33 11.80 43.82 13.54 C 51.89 16.51 58.03 24.29 58.80 32.89 C 59.61 39.84 57.21 47.21 52.09 52.05 C 47.25 57.19 39.85 59.61 32.89 58.80 C 24.52 58.04 16.91 52.21 13.79 44.45 C 11.46 38.81 11.46 32.23 13.78 26.59 C 16.49 19.83 22.57 14.54 29.63 12.75 M 33.99 13.07 C 26.42 13.45 18.97 17.81 15.60 24.71 C 10.89 33.66 12.69 45.77 20.40 52.49 C 28.67 59.79 42.27 59.80 50.56 52.53 C 58.47 45.66 60.18 33.15 55.10 24.13 C 51.13 16.61 42.33 12.45 33.99 13.07 Z" />
<path fill="#ffffff" stroke="#ffffff" stroke-width="0.09375" opacity="1.00" d=" M 39.29 26.49 C 41.62 25.44 44.07 26.51 46.00 27.87 C 47.24 27.55 48.39 26.12 49.75 26.57 C 48.83 27.62 47.89 28.65 46.92 29.65 C 47.70 29.50 49.27 29.19 50.06 29.03 C 49.17 30.31 47.31 31.15 47.28 32.87 C 47.03 38.35 44.13 43.71 39.38 46.56 C 36.36 48.78 32.44 47.71 28.96 47.97 C 26.59 48.18 24.22 47.90 22.18 46.59 C 25.10 46.11 28.09 45.72 30.64 44.08 C 28.34 43.46 26.21 42.33 25.06 40.15 C 25.55 40.04 26.52 39.81 27.01 39.69 C 24.91 38.51 23.45 36.62 22.73 34.33 C 23.68 34.46 24.64 34.60 25.59 34.75 C 23.45 32.81 22.65 29.94 23.60 27.18 C 27.08 30.08 30.90 32.89 35.65 33.23 C 35.44 30.52 36.55 27.47 39.29 26.49 Z" />
</g>
</svg>
