<?xml version="1.0" encoding="UTF-8" ?>
<!DOCTYPE svg PUBLIC "-//W3C//DTD SVG 1.1//EN" "http://www.w3.org/Graphics/SVG/1.1/DTD/svg11.dtd">
<svg width="40pt" height="40pt" viewBox="0 0 40 40" version="1.1" xmlns="http://www.w3.org/2000/svg">
<g id="#676767ff">
<path fill="#676767" stroke="#676767" stroke-width="0.09375" opacity="1.00" d=" M 6.35 7.57 C 14.90 6.83 23.54 7.05 32.12 7.38 C 34.56 7.26 36.97 8.90 37.38 11.39 C 38.20 16.56 37.98 21.85 37.65 27.05 C 37.60 29.71 35.78 32.55 32.88 32.56 C 24.97 33.07 17.01 32.92 9.08 32.71 C 6.62 32.72 3.56 32.02 2.85 29.27 C 1.69 24.24 2.10 18.97 2.29 13.85 C 2.35 11.26 3.42 8.03 6.35 7.57 M 16.39 24.81 C 19.51 23.03 22.67 21.31 25.95 19.82 C 22.86 17.82 19.54 16.25 16.35 14.42 C 16.34 17.88 16.32 21.34 16.39 24.81 Z" />
</g>
</svg>
