<?xml version="1.0" encoding="UTF-8" ?>
<!DOCTYPE svg PUBLIC "-//W3C//DTD SVG 1.1//EN" "http://www.w3.org/Graphics/SVG/1.1/DTD/svg11.dtd">
<svg width="70pt" height="70pt" viewBox="0 0 70 70" version="1.1" xmlns="http://www.w3.org/2000/svg">
<g id="#ffffffff">
<path fill="#ffffff" stroke="#ffffff" stroke-width="0.09375" opacity="1.00" d=" M 28.54 12.77 C 41.45 9.02 56.05 18.53 57.68 31.87 C 59.58 42.53 52.98 53.82 42.81 57.46 C 34.42 60.67 24.13 58.65 17.92 52.06 C 12.53 46.97 10.17 39.10 11.33 31.84 C 12.58 22.80 19.73 15.01 28.54 12.77 M 33.01 13.06 C 25.91 13.44 18.87 17.24 15.28 23.48 C 9.89 32.34 11.24 44.91 18.91 52.04 C 26.76 59.44 39.89 59.93 48.44 53.45 C 57.09 46.96 59.38 34.01 54.35 24.61 C 50.51 16.82 41.53 12.43 33.01 13.06 Z" />
<path fill="#ffffff" stroke="#ffffff" stroke-width="0.09375" opacity="1.00" d=" M 24.39 27.61 C 30.90 26.71 37.57 27.11 44.14 27.32 C 46.15 27.19 47.65 29.04 47.71 30.94 C 47.99 34.43 48.04 37.97 47.65 41.46 C 47.52 43.28 45.95 44.81 44.09 44.71 C 37.76 44.95 31.39 45.13 25.08 44.56 C 21.70 43.90 22.23 39.58 22.09 37.00 C 22.39 33.92 21.19 29.47 24.39 27.61 M 32.43 39.79 C 34.69 38.43 37.00 37.14 39.33 35.91 C 37.27 34.09 34.74 32.97 32.44 31.50 C 32.36 34.27 32.36 37.03 32.43 39.79 Z" />
</g>
</svg>
