<svg xmlns="http://www.w3.org/2000/svg" viewBox="0 0 20.76 25.51"><defs><style>.cls-1{fill:#fff;}</style></defs><title>Asset 1</title><g id="Layer_2" data-name="Layer 2"><g id="US_UK_Download_on_the" data-name="US UK Download on the"><path class="cls-1" d="M17.34,13.57A5.8,5.8,0,0,1,20.1,8.7a5.94,5.94,0,0,0-4.68-2.53c-2-.21-3.87,1.18-4.88,1.18S8,6.2,6.32,6.23a6.23,6.23,0,0,0-5.24,3.2c-2.27,3.92-.58,9.69,1.6,12.86,1.09,1.55,2.36,3.29,4,3.23s2.23-1,4.19-1,2.51,1,4.21,1,2.84-1.56,3.89-3.13a12.83,12.83,0,0,0,1.78-3.62A5.6,5.6,0,0,1,17.34,13.57Z"/><path class="cls-1" d="M14.14,4.09A5.71,5.71,0,0,0,15.44,0a5.81,5.81,0,0,0-3.76,1.94,5.43,5.43,0,0,0-1.34,3.94A4.8,4.8,0,0,0,14.14,4.09Z"/></g></g></svg>